<svg width="233" height="311" fill="none" xmlns="http://www.w3.org/2000/svg"><path fill-rule="evenodd" clip-rule="evenodd" d="M180.6 253.5c-2.8-.5-3.7 2.7-3.9 4.7-1-.5-2.2-1-3.2-1.7-1.6-1-3.4-2.8-5.3-2.8l-.1-.5c-.1-.8-1.9-.2-2.3 0-.8 0-1.6-.8-2.1-1.5 2-.8 3-.8 2.6-3.4V247c-2.4-10.8-3-21.6-3.2-32.6l1.2-.2c4 11 7.8 22.6 11.1 34.4.1.5.4.5.7.2l3-.1 1-.1c.2 1.6.5 3.2.5 4.8zm-1.7-6l1-.4v.2l-1 .4v-.1zm-33.6 23.6l-4 1.1.5-1.2c-3-7.8-5.2-16-6.9-24.1a154 154 0 00-4-15.9c-2-8.1-6.4-16.5-15.6-17.2l-.2-.3-.2-.2a593 593 0 00-1.6-16.9c5 1.4 9.2 1 14 .9 1.5-.2 3.5.2 4.7-.5l.8-.8c5.4 21.2 6.8 43 8.8 64.4 0 .5.4.7.8.5.4.4 1.4.3 2 .3-.5 3.2.1 7 1.7 9.7l-.8.2zm-12.6-1.8a16.5 16.5 0 00-11.4-4 15.4 15.4 0 00-5.8-5.6c-1-3.5-.9-7.5-.7-10.8.6-3.4-.6-3.8-3.4-3.6 1.2-1.4 1-1.8.8-3.7.8.1 3.3 1.7 3.6.6.4-2.2.7-4 .8-5.8.1-1.4-1-3-.8-4.5-.4-3.8 0-8-1.8-11.6 7.2 1 9 8.8 10.8 14.5 3.8 11.8 6.5 23.9 9.3 35.8l-1.4-1.3zm-22.1-27l-.3 1.1c-3.4-.6-2.8 4.3-3 7a3 3 0 00-1.8-.1c-.1-1 .5-1.3-1.6-1.4-9.5.2-13.1 10-16.4 17.6-1.5 3.7-3.6 4.2-6.9 4.2-2.1 0-4.3.6-6.5.5a99 99 0 007.7-57.6l-.7-3.8c6.8 0 14.8.2 21.4 0 .8.8 2 1.1 3 1.1l.2 2.7c-6.2-.2-13 0-19.2 0 6.2.1 13 .2 19.2 0 0 1.7.1 3.2 1.6 4 .6 4.2-.1 8.6.4 13.4.4 3.3 0 9.7 3 10.7l-.1.6zm-43.4 25.4l-.2.4c-.5-.1-.9 0-1.3.3-3.6 1.9-8.7.1-12.6 0 .7-2.4.7-6.3-2.6-6.3 1-10.6.3-21.2.5-31.8 6.2-1.1 6-1.8 0-2.9l-.1-17.9c0-2.8 0-5.7-.3-8.4.6-1.2.4-2.4.7-3.6 1.2-.6 3.3.1 4-1 3.3 0 6.7-.1 10-.3.3 0 .4-.2.5-.4.6-.2 1.5.2 2 0l.7-1a73.1 73.1 0 016 18.4H62c4 .3 8.1.5 12.4.6 3.4 16.5 1 39.7-7.3 54zm-5.4 7.9c-8 10-21.2 13.5-32 5.3C.7 259.1 2 185 40 174.7c-1 3.9-4.6 20 1.9 20.4l.3-.2c1.3.5 3.2-.2 3.7 1.7h.7c-.4 2.4-.3 4.8-.4 7.2-.6-.2-1.2-.4-1.8-.3-2.3-.1-2.2-2.5-2.1-4.2l-.2-2.6c0-.5 0-1-.2-1.4-.7 2.2-1.3 5-.9 7.3.6 2 3.3 3 5.2 2L46 227c-1.2-.7-2.4-.3-3.7.1-1.6.3-3.6-.1-5.2.3-.2-.9-1-1.9-1.8-1.2-1 0-1.6 1-2.1 3-.3 1.7-.1 3.9 1.4 4.7 1 .4 1.8.1 2.2-.9.3.1.7.4 1 .3l8.2-1.8c.1 10.4-.3 20.8.5 31.2-4 .4-11.5-.7-13.2 2.8a4.3 4.3 0 00-2.7 3.8c0 2.6 2.8 3.4 5 3.4 9 .7 18 2 27 2l-.9 1zM78.2 196c5.7.7 11.5.7 17.2 1-1.9 12.6.7 5.3 6.6 12.4H81a90 90 0 00-4-13.6l1.2.2zm44.3-64.3c2.6 3.5 5.9 6.6 9.6 8.7-3.2.2-6.5.5-9.7.9l-1-9.1 1.1-.5zM232 264.6c-.3-3-3.7-4.1-6.2-3.3-1.4-3.7-6.2-3.3-9.2-4.9-6.2-3-12.5-8.8-19.7-6.5l-2-4.9c.2.2.6.2.9-.1.3-.3.5-.6.5-1 1-1 1.4-2.7 1.6-3.9-1.1-3.8-2.5-7.5-3.7-11.3-4.8-14.5-8.1-28-11.7-41.9-4-10.3-5-37.4-19.5-37.4 0-.8 0-1.6-.3-2.2-.4.5-.6 1.4-.6 2-6.2 0-11.5 1.1-15.6 2.9a129 129 0 00-23.6 1.1c1.1-1.8.4-4 .3-6 13 .6 26.2-.6 39.1-1.3 2.1-.2 4.3 0 6.4-.6 2.1-.5 4.2-3.2 2-5.3-1.5-.9-3.4-.4-5-.5-8.4 0-17 .2-25 .5 9.9-5 14.9-15.5 20.8-24.5 3-4.9 5.3-9 7.1-13 .3-.6.4-1.3.2-1.7 0-.4-1.2-.4-1.5-.5 8.3-12.8 21-7.2 27.8-14.6l-3.9.2-.3-1.3a24 24 0 007.2-5.3c-4.1 1.3-8 2.2-11.8 2.9l-.5-1.2a31 31 0 008.8-8.7c-4.3 2-8.4 4.6-13 6.4l-.7-1c2.6-2.5 8.4-6.2 6.8-9.7-6.5 3.1-12.4 7.1-18.6 10.6 0-2.8 2-7.3.8-9.6-1.3-1.6-1.9-.3-2.5 1l-3.4 5.6c-2.4 4.4-6 8.7-5.8 13.9-2.2-1-3.9 2.7-5.3 4.7a78 78 0 01-20.1 18.5c-12-10.8-10.2-29-23-39.2-4-4.1-7-4.6-11.8-6.1-1.1-.3-2.4-1.3-3.5-.3-1.5-1.3-3-5.3-3.6-7-.4-1.7-1-5.8-2-6.6-.8-.8-15.5-1.4-16.8-1-1.3.4-.8 3.5-.8 3.5L70 61.5l-.3.2c-1 0-1.9-.5-2.8-.5-1 0-1.8.7-2.5 1.3-1.4 1-2.8 2-4.4 2.6-19 6-21.4 15-27 32.5-4.7.1-8.6-.5-12.7-.7-1.4.2-1 3-1 4.5 0 3.9 2.9 3.5 5.7 3.4 2 0 3.9.3 5.8 0-2 9.4-6.2 24-1.7 32.7 3.6 6.8 6.7 8.1 9.7 8.3.7 6.6 0 12.4.1 18.7-43.3 11.6-45.3 79-26 111.7 15.6 26.8 44.8 25.4 59.3-1.3 3.5 1.9 10.4 1.8 15 1.4 3.7-.3 4.9-1.8 6.2-5.2l4.3-9.7c1.4-3.5 4.2-7.4 9.3-7.3 0 2-.4 4.4 1 6-5.1 1.7-2 9.8-.5 13.6-7.1 9.6-4.7 26.5 5.2 33.5 16.3 10.9 32.1-9.8 27.4-25.6.7.4 2.2.9 2.8 0 .3-.1 0-1-.1-1.2 11-.7 21.7-2 32.6-3-.4 10 9.7 20 19.7 19.8 13.2.6 21-16.6 17-27.8 5-.1 10.2-.5 15.4-1.2 2.9-.3 4.7-1 4.6-3.6z" fill="#fff"/><path fill-rule="evenodd" clip-rule="evenodd" d="M70.8 56.5c-.3 0-.2-.6.2-.5.4 0 .5.5.6.8a12 12 0 01-1.5 8.3c-.4.6-.8 1.4-1.5 1.5.4 2.4.8 4.8 1.4 7l6 2.6a46 46 0 0012 2c3 .2 5.8 0 8.5-1 1.1-.2 2-1.2 3.3-1.2-.8-2.2-1.7-4.3-2.7-6.4-3 0-5.3-3-6.2-5.6-.4-1-.5-2.1-.7-3.2v-.4l-.2-1c0-.2.2-1.3.1-1.5v-.3c.3 0 .5.6.5.7 1.3 2.5 1.7 5.6 4 7.5 1-.7 2.4.2 3.5.5l.3.1c5.3 1.7 7.7 2 11.9 6.2 7.1 5.6 9.3 12.7 12 20.9l.2.4a47 47 0 0010.3 17.6c2-1 14.2-10.6 18.4-16.3V95c1.3-1.6 4-7.3 6.3-6.8.2-5 3.5-9.2 5.9-13.4l3.4-5.6c.3-.5.6-1.3 1-1.7.8-.8 2.1 0 2.6.7 1.3 2.1-.3 6.2-.6 8.8 5.8-3.4 11.4-7 17.3-10 .6-.2 1.2 0 1.3.6 1 4.1-4.4 7.6-7 10 4.2-1.7 8.3-4.2 12.5-6.2l.3-.2c.5-.3 1.3.4 1 1a31.6 31.6 0 01-9.1 9c4-.8 8-1.8 11.8-3 .6-.2 1 .7.6 1.1l-.2.2c-2.1 2.1-4.4 4-7.2 5.3a1302.1 1302.1 0 013.9-.2c.6 0 .8.7.5 1.2a12.3 12.3 0 01-5.5 3.4c-8.6 2.3-15.8 2.1-21.6 10.2 1.4.3 1.2 1.9.7 2.9-2 4.6-4.5 8.9-7.1 13-5.6 8.3-10.2 18.2-19 23.5a671.6 671.6 0 0121.8-.4h1.2c1.6 0 3.7-.3 5 .7 2.6 2 .6 5.9-2.3 6.4-1.8.5-3.8.4-5.6.6.3.6.4 1.5.5 2.2 6.5.4 10.3 5.5 12 11.3 3.6 11.2 6.4 22.6 9.3 33.9l.4 1.3c2.8 11.1 5.8 22.3 9.4 33.2 1.2 3.8 2.6 7.6 3.7 11.4.1.3 0 .6-.1.9-.2 1.5-1.2 4-2.8 4.4.7 1.3 1.3 2.7 1.8 4 7.3-2 13.4 3.8 19.5 6.7 3 1.6 7.5 1.1 9.3 4.7 2.8-.7 6.2.8 6.5 4 .2 3.1-2.5 4-5.2 4.3-4.8.6-9.7 1-14.6 1.2 2.8 9.2-1.8 22.6-11.2 26.4-12.3 5.2-26.7-5.4-27-18.3-10.4 1-20.8 2.2-31.2 2.8.5 1.5-1.5 2.1-2.6 1.7 2.7 12.4-5.4 28.2-19 28.1-17.3-.1-24.4-24.2-15.2-37.1l-.1-.2c-1.5-3.8-4.2-11.4.4-13.6-1-1.5-.7-3.4-.7-5-4.3.1-6.5 3.2-8 6.8l-4.4 9.7c-1.3 3.5-2.7 5.3-6.7 5.5h-.4a33 33 0 01-14.4-1.1c-9.5 17.4-29.6 27.7-47 15.2-35.5-24.4-34.2-116 12.8-127a790 790 0 010-8.5l.1-.5c.1-2.8.2-5.7-.2-8.5-5.7-.5-9.1-7.8-9.7-8.9-4.4-8.4-.4-23.9 1.5-32H24c-3.2 0-5.4-.1-5.4-4.1 0-1.7-.8-4.7 1.4-5.2 1-.2 2.1.2 3 .3 3.1.2 6.2.4 9.3.4 2.7-7.6 4.8-15.8 9.8-22.2 4.4-5.5 11.3-7.6 17.5-10.2 1.7-.7 3-1.8 4.5-2.9h.1c.8-.6 1.6-1 2.5-1 .9-.1 1.7.3 2.6.4.2-.2.4-.2.6-.2a18 18 0 001-4c0-.2 0-.2 0 0zm51 210.3a13 13 0 00-5.5 1.2c-.4 2.2 1.4 5.4 2 7.6 0 1 .3 2 .5 2.8.1 2.7 1.3 5.2 1.8 7.8.1.5.9.3.8-.2l-1.7-6.8c.3.1.7-.1.6-.5-.2-.8-.2-1.6-.1-2.4 13.2 1.7 12.5 23.6-1 24-8.9.2-13.8-11.8-8.8-19l-2.6-5.2c-7 11.8.4 32 14 31.6 22.2-.6 22.2-40.3 0-40.9zm79.8 2.6a15.3 15.3 0 01-1 15.9c-3.7 5-12 4.5-15.6-.4a10.3 10.3 0 01-2.6-6.2c0-.5.3-1.4-.2-1.8l-2.8.3-4.3.4c4.1 11 14.3 21 26.7 15.4 7.6-4.2 10.5-14.2 9.4-22.4 0-.4 0-.8.3-1-3.3.1-6.6.1-9.9-.2zM67.1 186C45.2 151.7 16.4 174 9 205.6a92.6 92.6 0 008 67.6c13.6 23 36.5 22.9 50.1 0a91 91 0 009.6-60.1.7.7 0 01-.2.5c4 24.1-.5 54-19.8 68.8-14.2 10.4-30.9 1.9-38.8-12.4-15.5-26-14.3-73.6 11-93a22.9 22.9 0 0123.6-2.5c.1-.5.4 0 .5.2 13.5 7.1 20.2 22.4 23.3 37.7a93.2 93.2 0 00-1.2-6.8 71.8 71.8 0 00-8-19.5zm49.6 101.4c-1.2-.8-.6 1.5-.2 1.9.3.4.9 0 .7-.4-.3-.4.2-1.5-.5-1.5zM39.1 175.2c-32.7 9.1-34.9 69.3-19 93.4 7.3 13 22 21.2 35.1 11.7 2.2-1.5 4.2-3.4 6-5.6-8.3 0-16.7-1.2-25-1.8h-.3c-1.2-.1-2.5-.2-3.7-.8-3.5-1.7-2.6-6.1.7-7.7 1.7-3.4 9.5-2.6 13-2.8-.8-10-.4-20-.5-29.9a329 329 0 00-7.5 1.7h-.8c-.6.9-1.8 1-2.7.5-2-1-2.2-3.5-1.8-5.4v-.1c.3-1.3 1-3.3 2.5-3.4 1-.6 2 .1 2.4 1 1.6-.2 3.1.2 4.7 0 1-.3 2.1-.8 3.2-.5l.1-20.4c-2 .7-4.5-.7-5-2.8-.5-1.3-.1-2.9 0-4.2v-.3l.7-2.6c-4.7-.6-3.7-10.2-3.4-13.6.5-2.2.7-4.2 1.3-6.4zm76 38.7c-2 0-3.4 2.2-2.3 4 2.4 2.6 5.8.2 9.5 7.4 6.1 14.4 9 30 12.8 45 1.9 2 3 4.6 4.4 7 .6.8.7 2 1.7 2.6.1.1.3.1.4 0-2-1-1.5-6.3-1.1-8.2-.2 0-.9.1-.6-.2h.4l.3-.2c-5.5-12.8-6.7-27-10.6-40.1l-.4-1.2c-1.3-4.5-3-9.2-6.4-12.6 0 0-.2 0-.3-.2h-.2a10 10 0 00-7.3-3s-.1-.1 0-.2h.2l-.4-.1zm-9.7 35.9c-.6.2-1.2 0-1.9 0-.6 0-1.3.2-2 .4-11 3.1-9.3 19.5-17.3 21.4-2 .4-4 0-6-.2-1.2 0-2.4 0-3.6-.3a68.3 68.3 0 01-1.8 3.4c1.4-.2 2.9-.2 4.4-.2 3.4 0 6.9 0 10.3-.5 1.2-.2 2.3-.5 3-1.5 1.7-2.8 2.8-5.8 4.3-8.7l.2-.4c2-4.7 4.8-10.3 10.7-10.3 0-.4.3-.6.6-.7l.1-1.5-1-1zm-72.8 16c-.7 1-.6 2.9.5 3.6.8.4 2 .4 2.8.5h1.5l1.4.2h.8l21.1 1.8h.3l.1-.1c.2 0 0 0 0 0 .8-.5 1.6 0 1.8.8.7-.9 1.4-1.9 2-3-.9.3-1.9.4-2.8.3-.7.8-1.9.5-2.8.5-6.2-.5-12.4-1.2-18.6-2a3816.6 3816.6 0 01-4.8-.5h-.3c-1.4-.1-3-.4-3-2.2zm135.7-12.2c-.6.7-1.9.9-2.7 1.3-1 .5-2 1-2.7 1.7-3.8 3.5-7.6 9-13.5 6.5a6.8 6.8 0 01-3.1-2.3c-.3.2-.7-.1-1-.2.2 1.6.3 3.2.8 4.7l.7 2c.3.7.8 1.4.8 2.2 4.4-1 8.9-1.6 13.4-2.1 1.7 0 4.5-1 6-.1 1.6 1 .8 3 1.7 3.6 1.4.7 3.1.2 4.6.1l19-1.4c4-.7 1.4-1.8 3-2.8 0-5.8-7-5.2-11.1-5.7l-3.8 1.4c-.6.2-1-.7-.6-1.1l.8-1c-.6 0-1.2-.2-1.8-.4l-2.5 1.1h-.1c-.6.4-1.3-.2-1-.8l.7-1.4a18 18 0 01-2.3-1.2h-.1l-2.4 1.2c-.4.3-1.1-.1-.9-.7.2-.7 1-1 1.5-1.6 0 0-.1-.3 0-.4-1.1-1-2-2-3.4-2.6zm31.3 17.5h-.1l.1.1zm-85.7-74.3l.2 1.8a516.1 516.1 0 011.5 14.1l1.1.2c2 .4 3.6.7 5.3 2 5.9 3.2 7.8 10 9.6 16 4 12.8 5.3 26.5 10.6 39 .2.3.2.6 0 .9l2.9-.7c-1.3-2.4-1.8-6-1.5-8.7h-.1c-.5 0-1 0-1.3-.3-.7.2-1.3-.5-1.4-1v-.1c-1.9-21.1-3.2-42.5-8.4-63.2-.6.7-1.9.5-2.7.6h-2.9c-4.3.1-8.7.5-12.9-.6zm-31.5 17c3 18.5.4 40.7-7.3 56.3 1.8 0 3.6-.5 5.5-.5 3.3 0 5-.7 6.3-3.8 3.1-7.2 6.3-16.5 15.3-18h.5c1.2 0 3.3-.2 3.3 1.3h.6v-1.7c.1-2.1.4-5.1 3-5.1l.3-.7c-2.7-1.3-2.6-8.2-3-11-.2-3.9-.2-7.8 0-11.8 0-.4 0-.9-.2-1.2-1.4-1-1.7-2.1-1.7-3.7-7.5.1-15 0-22.6-.1zm32.7 7c.6 1.5.7 3.2.9 4.8l.4 5.6v.4c0 .7 0 1.4.3 2v.1c.4.8.6 1.5.5 2.3-.2 2-.5 4-.9 5.9-.5 1.6-2.3.6-3.4.2v.1c0 .7 0 1.4-.3 2 3-.1 3.1 2 2.8 4.3v.3a30 30 0 00.6 10c1.5.6 2.6 1.9 3.7 3 .6.8 1.4 1.6 1.9 2.4 4.1 0 8 1.4 11.4 4.2l-.4-1.7c-2.5-10.8-5-21.6-8.5-32.2-1.7-5-3-12.3-9-13.7zm-63.6-8.5v14.1c1.5.2 2.8.6 4.2 1.2.8.4.4 1.5-.3 1.8-1.2.5-2.5.7-3.8 1-.2 10.2.5 20.5-.5 30.7 3 .4 3.3 3.9 2.7 6.3 3.4.3 6.8 1.1 10.2.5 1 0 1.6-1.2 2.6-1a84 84 0 007.3-53c-7.5 0-15-.5-22.4-1.6zm-2 18.5l-2.2.5c-.1 10.1.3 20.2-.5 30.3a69.2 69.2 0 010 .7c-.1.5-.8.5-.9 0a25 25 0 010-.3l-4 .7c-2 .5-7 .2-7.3 2.8l1.6.2c5.3.4 9.9.8 15.1 1.4.3-1.6 1.5-4-.4-5-.3.3-.9.2-1-.3-1-10.3-.3-20.6-.5-31zm155.2 20.8c-6.3-2.4-9.5.5-14.5 3.6-2.6 1.5-6.1 2.1-8.7.4-1.2.1-1.8-1.2-1.7-2.2v-.3c-1.4 1-.5 3.3-.8 4.8 3 .9 6 1.1 9.1 1.3 4 .1 8.8 2 9.3 6.5v.1h.3c0-.4.3-.9.9-1 8.2-.4 16.6-.4 24.8-1.2 1-.3 1.3-1 1-2-.6-2.2-3.8-2.4-5.7-2.9-2.4-.6-4.4-1.8-6.5-3-.8.2-1.7.5-2.6.6-.4.1-1-.3-.8-.8l.2-.3c0-.4.3-.8.5-1.1l-2-1.2c-1.2.4-2.3 1-3.3 1.6-.6.4-1.3-.5-.8-1a5 5 0 001.3-1.9zm-41.5.8c-5.5 2.7-11.4 4.7-17.1 7.2h.1c.2 0 .4.2.5.4a7.5 7.5 0 007.7 1.1c3.7-2 5.5-6.1 9.2-8a3.4 3.4 0 01-.4-.7zm-52.8-7.5l-1-.2c-.3 1-.3 2-.4 3-.3 3.8-1 7.6-1.4 11.4a29 29 0 015.9-.9 45.2 45.2 0 010-10.4v-.2c.3-2 0-2-1.9-2.7h-1.2zm42.4-90c-3.2-3-8-2.6-12.1-2.6-8.8 0-17.6.8-26.3 2.2-.3.4-1 .5-1.3.2l-7.2 1.3c.7 4.1 1.2 8.3 1.8 12.4v.3c.3 1.8.4 3.8-.8 5.3l-.2 13.8c.6-.6 1.7-.6 2.6-.7 1.8-.4 3.5-.7 5.3-.8l5.5-.8c.3 0 .5 0 .6.2l7-.9-.1-.4c-.7-2-1.3-4.3-.3-6.4.2-.5 1-.5 1.2 0 .9 1.6 1 3.4 1.2 5.2l.8 3.1c1 1.6 1.5 3.5 2.1 5.2 6.9 21.6 7.7 44.5 10.3 67 4-1.8 8.1-3.3 12.1-5 3-1.3 9.5-2.4 9.2-6.5v-1c0-.1.1-.3.3-.3a86.6 86.6 0 01-2.3-16c-.8-14.7-1.3-29.5-1.7-44.2v-.6c-.4-10.3-.5-21.9-7.7-30zm10.8 59.1c.6 9.9.3 19.8 2.7 29.4v.3c.3 1 .9 2.3.5 3.2 0 1.2.4 3-.6 3.9-.4.3-1 .5-1.5.7.2.3.6.5 1 .6 1-.5 2.7-.8 3 .6 1.8.1 3.6 1.9 5 2.8.8.5 1.6 1 2.4 1.3.3-2 1.4-4.4 3.7-4.4 0-1.2-.2-2.3-.3-3.5-1.1.2-2.2.3-3.3.2-.7.5-1.4 0-1.5-.8-3.3-11.5-7-23-11-34.3zm30 29.9c-4.3 1.4-9.2 1.4-13.4 3.3a14 14 0 012 6.1 1.3 1.3 0 01.5 1.4c4.7 1 8.2-3 12-5a40 40 0 01-1-5.8zm-11.3 9.6c0 .3.2.2 0 0zm-3-5.9l-.3.1h.2v-.1zm-11-95.2c-5.2-3.4-15.4-1.8-21.5-1.4 12 .9 14 17.4 15 26.8.7 10.2 1 20.4 1.6 30.6 4.8 12.7 8.7 25.8 12.8 38.8 3.3-1.9 7-3 10.7-3.7h.6a19 19 0 009-3c-9.4-22.7-13.3-47.1-20.4-70.5-2-5.8-2.7-13.5-7.8-17.6zm27.5 90.6l-.6.2a.9.9 0 01.4 0l.2-.2zm-84.6-49c-.8-1.3-2.7-2.6-4.4-2 2.5 1.5 2 6 2.2 8.5v.2c-.1 2.4 0 7.5-1.3 9.3l.3 3.4c0 .4 0 1.1.2 1.5 2.7 1.5 1.3 5.1 1.5 7.6-.1 4.8.2 9.6.4 14.3 0 1.3-.2 2.6.2 3.8.6-1.1 2-1 2.4 0 .3-.3.8-.3 1.3-.2.1-1.6.4-3 .4-4.6 0-.7-.4-1.4-.6-2-.3-2.8 0-5.6.1-8.4.1-1.2.2-4 .9-4.7-4.2-.8-5.6-6-1.5-8 0-.2 0-.4.2-.6-.3-4.2-.8-8.3-1.2-12.5-.2-1.8-.2-3.8-1.1-5.5zm-75.8 35.4c.3-.4-.4-.9-.7-.4-.3.4-.4 1-.3 1.6 0 .3.5.4.7 0l.2-.7c.2-.1.2-.4 0-.5zm2.3-2.5v.2l.4-.1a14.6 14.6 0 01-.4-.1zM48 196.4l-1.1.4c.7 9.8.3 19.6.5 29.4.7.2 1.4 0 2.1.1.2-8.6-.1-17.1.4-25.7a6.6 6.6 0 01-.4-4l-1.5-.2zm54.3 13.6c-6.4.2-12.8.1-19.2 0h-1.2l.4 2.6c7.6-.1 15.2-.3 22.7-.1v-.4l-.1-1c-1-.1-1.9-.5-2.6-1.1zm-34-14.4c-.4.6-1.4.3-2 .3a1 1 0 01-1 .5l-9.6.3c-1 1-2.6.4-3.8.9-.1.7-.1 1.5-.3 2.2l-.3.9c.2 2.8.3 5.7.3 8.5 1.6-.4 3.3-.3 4.9-.4l10.6-.1h5c.3-.1.9.1 1 .6.2 1.1-1 1.2-1.8 1.2l-2.9-.1-11.5-.3c-1.8-.2-3.6-.1-5.3-.7v2.7h22.1a74 74 0 00-5.3-16.5zm95.3 15.4zM78 196c1.4 4 2.6 8 3.5 12.3 6.3-.2 12.6-.1 19 0-2.3-2.8-4.8-2-6-3.8-.8-1.4-.1-5.8 0-7.5-4.9-.2-9.8-.2-14.7-.7L78 196zm-35-1.4a2.4 2.4 0 01-.3.2c.3 1 0 1.8.3 2.7v3.2c0 1 .6 1.5 1.4 1.6h1.2c0-1.8 0-3.7.3-5.6a3.8 3.8 0 01-.6-.1c0-.9-.9-1.8-1.8-1.3l-.5-.7zm57.8-.7a3 3 0 00-.7.2c0 2.4 3.5.7 4 3.7v2c0 .4-.3 1 0 1.2.3.3.8.2.8-.2a4.4 4.4 0 010-.2l.3-1c.2 0 .1-.4 0-.6 0-.4.2-1.1-.3-1.3 0-2.8-1-3.3-3.7-3.5-.2 0-.3 0-.3.2v-.5zm-2.3-36.6c-1.8.5-3.9.7-5.8 1-12.5 1.8-24.5 6.9-37.2 6.7l-1.2-.1v.6c.3.2.4.5.5.8a49.8 49.8 0 0121.2 25l17-2.3 1-.1 2-.3c1-.1 2.1-.4 3.1-.2.4-4.5.4-8.9.8-13.4-1-.8-.8-2.5-.8-3.6l-.5-14zm6.5 17.9h-1c-1 .5-2.2.2-3.2.1l.3 3.2c.1 4 0 8.2-.3 12.3l4 .3.2-16zm-50.4 3.3c1 4.3 5.8 11 10.6 11.4-3-4.7-6.3-8.4-10-11a30.2 30.2 0 00-.6-.4zm42.8-33h-.5c1 1.4.8 3.4-.3 4.6 3.8 2.4 3.7 7.7 3.9 11.7l.5 11.6h.3c.5.2 1 .2 1.6.2.8-.4 1.8-.4 2.4-1.1.6-1 .5-2.2.4-3.2l-1-7.3c-.8-5.2-.7-15.3-7.3-16.4zm-1.5 5.2c-3 2-7.2 1.2-10.7 1.4a429.2 429.2 0 01-33.6-.7v.3c.2 2.9.5 5.7 1.3 8.5.5 1.9 1.2 2.6 3.2 2.4 10.6-.2 20.7-4 31-5.8 3.8-.6 7.5-1.2 11.2-1.6v-.2c-.3-1.7-.8-3.5-2.4-4.3zm2.3-83l.2.9c12.4 26.4 9.1 56.6 15.7 84.5l.3.4c2-.5 4.2-.8 6.4-1.2-.3-.6.1-1.2.5-1.6l.1-.2c-.8-10-2-19.8-3-29.7-.6-7-1.8-14-1.4-20.8 0-.1 0-.1.1 0 1.7 6 2.6 15 4.3 27.1 12 14.1 19.2 16.6 30.8.3l.6-1c5.5-7.9 10.8-16 14.9-24.7-5.2-.2-8-5.5-10.2-9.5a2 2 0 01-.8-1c-1.7 2.3-3.1 5-4.9 7.1-4.4 5.8-14.5 12.9-14.7 13.1-.7.6-2.7 3-3.3 2.9-2.7 2.4-8.7-9.1-9.4-11.3-1.7-4.2-3.1-5.5-4.7-9.8l-.2-.8c-2.1-6.3-4.2-12.8-9.5-17.2l-.2-.2a20.6 20.6 0 00-11.6-7.2zm64.1 78.3l-4.5.3h-1.3c-11 .7-21.8 1.5-32.7 1 .1 1.6.6 3.1 0 4.6 7.6-.9 15.1-1.4 22.7-1 4.5-2.1 9.9-2.8 15-2.8 0-.7.3-1.5.8-2zm-76.5-12c-7.3-3.2-14.4 0-17 8 .2.1.3.4.3.6.7 1 2 .9 3 1 2 .3 4 1 5.8 2 1 .5 1.9 1.3 2.9 1.7l.6.6c.9.8 1.8 1.7 3 2.1 1.3 0-.3-2.4-.6-2.9v-.1c-.6-.9-1.3-1.8-.6-2.8 1.4.6 2.4 1.6 3.5 2.6l.2.2c1 1 2.3 2.3 3.8 2.4.2 0 .4-.2.3-.4-.6-2.3-2.6-3.8-4.4-5.2 0-.6.4-1 1-1.2 2.6 1.5 4.4 3.8 6.9 5.3.2.2.5 0 .6-.3 0-2-2-3.5-3.5-4.7a21.7 21.7 0 00-.8-.6c0-.4.4-.7.8-.8.9.2 5.8 4 5.8 2.3-.1-.7-.8-2-1.5-1.9a26.4 26.4 0 00-10-7.9zM66.6 62c-2.6 1.4-5 3-7.7 4.5-3.2 1.9-6.8 3.3-10 5.5-9.6 7-12.4 22-16 32.8l-.4 2.2c-2 8.5-5 22.2-1.4 29.2.5 1 2.6 4.9 3.7 5.6 3.3 2 10.2 2.7 16 2.3 5.7-.3 11.3-1.3 16.8-2.5.2-1.9 1-3.4 2-5l.2-.1v-.2c1.5-2 3-3.7 5.3-4.6-7.6-2.2-20.2.7-28.7-5.3-.7-.4-.1-1.5.6-1l1.4.5c-.4-1.4.6-2.3 1.3-3.5 5.4-10.9 9.6-23 13.3-34-1 7.7-2.8 15.3-5.3 22.7 2.3 1.7 4.2 4 6.3 6 2.2 2.3 4.8 4.3 6.5 7 .4.7-.3 1.3-1 1a15 15 0 01-3.8-3.1l-.5-.5c-2.8-3-5.6-6.2-7.7-9.8-1.5 4.1-3.2 7.6-5.1 11.5l-.3.5c-.4.8-.8 1.8-1.5 2.4.5 1 1.7 1.2 2.6 1.4 7.3 2 15 .4 22.4 2.2l.5.1c.5.2 1 .3 1.3.8a30 30 0 0117.6 6.8l.1.1c2.2 1.7 4.3 4 4.7 6.7 0 .5-.1 1.3-.8 1.4 1.3.1 2.4.8 3.3 1.6-8.6-29.7-33.8-53.3-35.7-85.2zm27.2 84.4l.3.6v-.1l-.2-.3v-.1zm28.1-14.7l1 8.5 7.1-.7h-.1c-1.2-.8-2.3-1.7-3.3-2.6a37.4 37.4 0 01-3.3-3.4 28 28 0 01-1.4-1.8zm-56-30.2c.3 3.2 2.4 6 4.2 8.5.5.7-.6 1.3-1 .7l-.3-.3a19 19 0 01-4.2-9c-.1-.7 1.2-.7 1.3 0zm121-32.2c-5.8 3.7-11.9 6.9-17.8 10.3-.8.4-1.5-.3-1.4-1l1-5 .2-1.3c0-.5.4-2.2 0-2.8-1.4 2.5-3 5-4.5 7.4l-1.7 2.7c-1.7 2.9-3.8 5.8-4.5 9.1.5.4.7 1 .7 1.6.5.2.9.8.7 1.4 2.2 2.5 3.7 6.2 7.1 7.3a24 24 0 0117-9.7l1.2-.2c3-.5 6-1.1 8.3-3l-7 .4c-.7 0-.9-1.2-.1-1.4a22 22 0 009.4-4.5 54.5 54.5 0 01-13.9 3c-1 0-1.1-1.5-.2-1.7 4.2-1.8 7.9-4.5 10.7-7.9l.1-.1-6 3.1c-2.4 1.3-5.1 3-8 3-.9 0-1-1.1-.4-1.5l.8-.6c2.7-2 8-6 8.4-8.6z" fill="#2B283A"/><path fill-rule="evenodd" clip-rule="evenodd" d="M70.6 11c7-.4 13.2-2.4 18.2 2 0 0 8-6 9.3-3.7.9 1.6-.4 3.6 0 5.5 2.1 3.7 2 10 2.1 11.5.3 3.7 2.3 17.6 2.3 21a41 41 0 01-2.3 8.5c-1.9 5.5-5.6 8.3-11.6 8.3s-15.8-5-19-9.5c-.2-.4-2 .7-3.9-1.3-2-2.1-3.1-6.3-3.1-8.7 0-3.1-2-5.3-1.8-9.3.5-8.9 2.3-24 9.8-24.3z" fill="#fff"/><path fill-rule="evenodd" clip-rule="evenodd" d="M69.8.6h.3a2 2 0 01.3 0c.5.2 1 .4 1.4.8l.4.5.1-.1a3 3 0 01.2-.2 3 3 0 011.2-.6 3 3 0 011-.2c.4 0 .8 0 1.1.2.5.2.8.5 1.1.8l.6.6a4.2 4.2 0 011 1.6 18.9 18.9 0 011.4 0 16.8 16.8 0 015.8.7l.9.3a5.8 5.8 0 011.1.6l.3.2a17.7 17.7 0 011.5 1A11.1 11.1 0 0190.7 8l2 1.5a14.2 14.2 0 011.4-.8 14.2 14.2 0 013.8-1h.8l.1.1.1.2c.2 0 .3.1.3.2l.2.2a83.5 83.5 0 010 2.5 257.2 257.2 0 010 1l-.3.7v.3l-.7 1.7.5.6.1.1h.2l.8 1.2v.3h.1a8.2 8.2 0 01.5 2 35.1 35.1 0 01.6 2.8l.2.2.9 1 .6 1.2v.2l.3.5.2 1.2c0 .6 0 1.2-.2 1.7-.1.5-.4 1-.8 1.3l-.3.2a1 1 0 01-.8.1v.1h-.3v.2h-.3v.2l.4 2.6a55.7 55.7 0 00.4 4v.4a50 50 0 001.5 7.8l.2 1.6.2 1v1.5a9.1 9.1 0 01-.3 1.4 5 5 0 01-.5 2 18.3 18.3 0 01-2.2 4.8l-1.8 2.5a17 17 0 01-7.6 5c-.5.3-1.1.4-1.7.5a11 11 0 01-3.5-.1 10.6 10.6 0 01-3.8-1.2 6.4 6.4 0 01-.8-.5 9 9 0 01-1.2-1 8.3 8.3 0 01-.4-.3v-.2c-.1 0 0-.2 0-.2V61h.2c-.1 0 0-.1 0-.2h.2v-.1h.2l.3.1.4.4h.2l.5.5.1.1h.1l.7.5 2.7.9h.1l.9.1a7.7 7.7 0 001.7 0 5.8 5.8 0 001.3 0 11.7 11.7 0 004.3-1.7 13.6 13.6 0 001-.6 20.2 20.2 0 001.5-1.3l.7-.7.1-.1.6-.7.2-.2a23.4 23.4 0 003.4-6l.3-1.3a6.5 6.5 0 00.4-1.7v-.2a10.7 10.7 0 000-1v-1.3l-.1-1.3-.1-.5v-.5a11.3 11.3 0 00-.3-.9v-.1l-.2-1-.2-1a26.7 26.7 0 01-.4-1.9 76.6 76.6 0 01-.4-3.1 7 7 0 010-.2 42.4 42.4 0 01-.3-3 40.8 40.8 0 01-.1-2.8V29.3H98a13.1 13.1 0 01-1.6-.3l-.2.1v.1H96a3.3 3.3 0 01-1.1 0 3 3 0 01-.4-.2l-.8-.2a2 2 0 00-.9 0c-.3 0-.6.2-1 0h-.1a.6.6 0 01-.1 0c-.4 0-.7-.3-1-.4a.5.5 0 00-.4 0l-.1.1-.2.2-.4.5a1 1 0 01-.7.3l-.5-.1c-.5.1-1.1.2-1.7 0-.2 0-.4 0-.6-.2a2.6 2.6 0 01-.3-.1c-.4.1-.7.4-1.1.6h-.1c-.4.2-.8.4-1.2.4-.6 0-1.1-.2-1.7-.3H81c-1 .3-2 .6-2.8.4-.4 0-.8-.2-1.1-.5a1 1 0 01-.2 0c-.5-.3-.8-.8-.7-1.3v-.5l-.5.5-1.8 2.3v.1a16.1 16.1 0 00-1 1.4 43.3 43.3 0 01-.7 1.3l-1 1.2-.2.2-.5.6a6 6 0 00-.8 1.4 13 13 0 00-.5 1l-.2.4a11 11 0 00-.4 1.3 7 7 0 00-.2 1 6.8 6.8 0 000 .5h.2l.3.3-.2.4-.5.9.4.2.5.5c.2 0 .3.2.5.3l.4.6a3.5 3.5 0 01.3.6v.4c0 1-1.1.3-1.2.2a3 3 0 00-.7-1.3l-.7-.3-.1.1a3.8 3.8 0 01-1 0H66a3.4 3.4 0 00-.7.3c-.6.5-1 1-1.2 1.7a4.9 4.9 0 00-.1.1v.1c-.4 1.5 0 3 .6 4.3a35.4 35.4 0 001.1 1.7l.4.5a19.2 19.2 0 01.7.8l.4.2h.1l.7.2 1-.1h.1l.5-.5h.2a1.8 1.8 0 000-.1h.2s.4.1.3.2v.1c.3.1.7.3.6.4 0 .1 0 .2-.2.3v.2a.7.7 0 010 .1l.6.7a5.7 5.7 0 00.7 1.2l.8 1 .8.6h.1s.2.1.1.2c.2.2.3.3.5.3l.1.2-.4-.1h.1s.2.2 0 .3a4 4 0 01-.3-.2v.1l.3.2.1.2H74l-.2-.2.1.1h.1l.2.3h-.3v-.1H73.6L73 59l-1.4-1a8.6 8.6 0 01-.8-.8 9.2 9.2 0 01-1-1.8 8.9 8.9 0 01-.2-.2 3.3 3.3 0 01-1.6 0 5 5 0 01-1.7-.7 3.9 3.9 0 01-.7-.5 9.7 9.7 0 01-1-1 11.3 11.3 0 01-.6-.8l-.6-.8a7.4 7.4 0 01-1.2-4.2 5.1 5.1 0 01.1-.8v-.1h-.1l-.3-.2-.5-.7a6 6 0 01-1-2.8 6.3 6.3 0 010-.2v-1.7l.1-.2a4 4 0 01-1.2-2.9c0-.3 0-.7.2-1a3 3 0 01-1.4-1.1 3.4 3.4 0 01-.1-.1 5.3 5.3 0 01-1.5-2.2 5.2 5.2 0 01-.4-1.6 10 10 0 01-.1-2.7 12.9 12.9 0 01-.5-2.4v-.1a2.8 2.8 0 010-.1 15.6 15.6 0 011.5-7.6v-.2c1-1.4 2.3-2.6 3.4-3.8.4-.4-.2-1-.6-.6l-2.3 2.4a3.1 3.1 0 01-.4 0 3 3 0 01-.6 0l-1.5-.7c-.5-.3-1-.8-1-1.4a1.3 1.3 0 010-.2v-1a1.7 1.7 0 01.1-.3c.2-.2.3-.5.6-.6v-.1a1.3 1.3 0 01.2-.1l-.4-.8a3.2 3.2 0 01-.3-1.3 4.3 4.3 0 010-.1c0-.5 0-1 .2-1.4a2.7 2.7 0 01.1-.3l.7-1a2.8 2.8 0 01.5-.3 2.2 2.2 0 01.4-.2l.8-.3h.1c0-.6.1-1.3.4-1.9.1-.4.3-.8.7-1a1.9 1.9 0 01.7-.5c.3-.2.6-.2.9-.2a2 2 0 011.2.3 3.3 3.3 0 01.1-.3l.8-1h.1a4.5 4.5 0 01.5-.4 3.8 3.8 0 011.1-.5A3.7 3.7 0 0165 .6h.2c.5 0 1 .2 1.4.4.5.2.9.4 1.3.8a2 2 0 01.3-.4 1.9 1.9 0 01.2-.1 2.7 2.7 0 01.4-.3l.5-.3a2.3 2.3 0 01.6 0zm-2.2 46.1l1.5.7 1.5.9c0 .6-.1 1.3-.6 1a9.6 9.6 0 00-.2-.1c-1-.7-2.1-1.2-3.3-1.5 0 0 .5-1 .7-.9h.4zM78 22.3l-2 .3a44.7 44.7 0 01-1.3 0 9 9 0 01-1.9 0 6.3 6.3 0 01-.7 0 7.4 7.4 0 01-.4.2L70 24.2l-3.4 3a19.8 19.8 0 00-4.4 7c-.1 1-.6 1.9-.8 2.9-.2 1 0 1.8.7 2.6.1.2.4.2.5 0 0 .1.3.1.3-.2l.7-1c.1-.3 0-.5-.3-.5a15.4 15.4 0 013.6-6.4l.1-.2h.1l.2-.1h.3v.2l.2.2c.2 0 .5.2.5.3a11.2 11.2 0 00-.3.3s.1.1 0 .2a13.7 13.7 0 00-1.1 1.4 10.8 10.8 0 00-.8 1.2l-.9 1.8a15.3 15.3 0 000 .3 14 14 0 00-.8 3.2v1.8a5.5 5.5 0 00.7.3h.1a.9.9 0 01.1 0l.8-.2a3.3 3.3 0 01.5 0h.3v-.1a7.4 7.4 0 010-1.6 23.2 23.2 0 01.2-1.4l.6-1.7a30 30 0 012.6-4.6l2-3.1a37.3 37.3 0 014.6-5.3c.7-.7 1.5-1.2 2.4-1.8h.3l.3-.1v-.1a40.2 40.2 0 01-1.8-.2zm8-7.3c-.5-.1-1-.1-1.6 0a9.6 9.6 0 00-.6 0c.5.5.9 1 1.1 1.6.3.7-.8 1-1 .3-.3-.6-.8-1-1.4-1.4a3.7 3.7 0 00-.4.2 4 4 0 00-.4.5c-.3.3-.6.7-.7 1.1a4.7 4.7 0 00-.2.8 8.8 8.8 0 000 .1c-.1 1.2.2 2.3.8 3.3a10.5 10.5 0 011.6-.7 14.7 14.7 0 011.3-.8 14.2 14.2 0 013.2-1.2l.8-.2h.2v-.2a4.9 4.9 0 00-1.7-3 3.7 3.7 0 00-.6-.3L86 15zm-13.6-1h-3.1a26.9 26.9 0 00-2 .3c-.6 0-1 .2-1.4.3l.2.5a27.5 27.5 0 002.2 3.7l.7.8.2.2.8.5.7.5.9.3h.2l.1.1h.3a3.5 3.5 0 00.7.1h.5c.8.2 1.6 0 2.5 0l3.5-.5h.1l.2.3.1.1a4.9 4.9 0 01-.3-1l-.1-.6a5.3 5.3 0 010-.6 4 4 0 01-.1-.3v-.3a7 7 0 00-.7-.2l-2-.2a15.8 15.8 0 00-1.1 0 27.5 27.5 0 00-1.3.2L74 18h-.2s-.2-.2 0-.2a5 5 0 01.1 0v-.1h-.3c-.2 0-.1-.1 0-.2 0 0-.1-.2 0-.2h.1-.2l.1-.2h.1l.1-.2a11.4 11.4 0 011-.3 7.6 7.6 0 01.6 0v-.1a7.6 7.6 0 011.5 0 8.5 8.5 0 01.9 0 7.4 7.4 0 011.3.4l.4.2a4.5 4.5 0 01.2-.6v-.2l-.2.1a13.1 13.1 0 00-2.4-1.3 12.5 12.5 0 00-1.5-.6 18.4 18.4 0 00-.8-.2 10.4 10.4 0 00-.4 0 11 11 0 00-2-.4zm25.5 1.8a10.4 10.4 0 01-2.1 2.6 5.5 5.5 0 011.4.2h.2c.6.2 1.2.4 1.7.8a.8.8 0 000-.1 4.3 4.3 0 000-.4 9.2 9.2 0 00-.7-2.4 7.3 7.3 0 00-.5-.7zm.1-6.4a6.5 6.5 0 00-.7.2 5.6 5.6 0 00-1.2.3l-1.7.7c-1 .5-2 1-2.9 1.8a6.3 6.3 0 00-.1.1 8.8 8.8 0 00-.6.6l-.6.6-.7.7a1.4 1.4 0 00-.1.2h.1v.3a1 1 0 01-.1 0v.1a.7.7 0 01-.2 0l.3.3-.1.1a.9.9 0 01-.2 0v.1h-.4l.8 1 .4-.2h-.2V16a5.2 5.2 0 011.1-.7 4.7 4.7 0 01.8-.4l2-.8h.3c.1 0 .3 0 .2.2a1.5 1.5 0 01.1 0c.2 0 .3.2.4.3.1 0 .2.2 0 .2l-.1.1a5.3 5.3 0 00-.2 0l.1.2.1.2h-.1v.2a21.8 21.8 0 00-2.4 1 7.2 7.2 0 01-1.8.7L90 17l.2 1a1.3 1.3 0 010 .1h.4a15.2 15.2 0 012.6.1 10.3 10.3 0 002.8-2.6 11.1 11.1 0 001.1-1.8 11.6 11.6 0 00.7-1.8l.2-1.8a5.3 5.3 0 000-.3v-.7zm-8 7.4a1.7 1.7 0 01-.1 0v.1h.1zm8-9c.2-.1.3-.2.4-.1a12.4 12.4 0 00-.4 0z" fill="#2B283A"/><path fill-rule="evenodd" clip-rule="evenodd" d="M90.7 56c-.7-.2-1.4-.8-1.9-1.4a1 1 0 01-.2-.7c0-.3.2-.5.4-.7l.7-.2c.2 0 .4.2.6.4.3.5.7.8 1.1 1l1.4.3c1-.1 1.6-.6 2.2-1.4l.3-.2a.4.4 0 01.2-.2h.3a.5.5 0 01.2.2.4.4 0 01.1.3 3 3 0 01-1 1.9c-.5.5-1.3 1-2 1a4 4 0 01-2.4-.2zm2.7-11c.9.5 2.2 1.8 1.3 3-1.1 1.2-2.6-.1-3.4-.7-.7-.5-1.5.7-.9 1.3 5.6 4.2 7.8-3.5 3.5-4.2-.5-.1-.7.4-.5.6zm-9.8-5c0-1.1 1.8-1.4 2-.2.2 1 0 2-.5 3-.4 1-1.5.5-1.6-.4V40zm13.5-.5a1 1 0 011-.4c1.3.4 1 2.4.5 3.3-.3.5-1.1.7-1.5.2-.6-.7-.9-2.2-.1-3zm-12-4.7h.2c.7-.1 1.5-.3 2 .3.2.3.3.8 0 1-.6.6-1.3.4-2 .4l-1.6.3c-1.3.4-2.2 1-3.3 1.7-.1.1-.2 0-.2-.2a6.8 6.8 0 013-2.8 7 7 0 012-.7zm10.8-.5h.1c1.8.4 4 1.1 4.9 3v.3h-.2a5 5 0 01-1-.3l-.4-.2-1.1-.5a13 13 0 00-2.6-.6 1 1 0 01-.5-.2.8.8 0 01-.3-.4l.1-.7.4-.4h.6z" fill="#2B283A"/></svg>