<svg width="265" height="431" fill="none" xmlns="http://www.w3.org/2000/svg"><path d="M168.1 173.4c0 2.6-4.1 29.6-4.3 29.7-7 49.2-17.7 97.4-23.1 146.8 1.6 2.1-.8 5.2 0 7.8.5 3.1-6 5-7 5-1.3 1.2-4 1-5.3 2.3-.9 1.5-1 7.2-1 7 0 .5 25.2 11.8 36.9 18.5 2.5 1.3 5 3.6 7.7 4.8 1.3.7-.7 3-1.5 4.1-1 1.6.4 3.3-1.8 2.8-1.9 1.6-13 .4-15.9 0-10.5-1.2-20.7-1-31.1-2.8-2.5-.4-4.9-1-7.2-2-2 .8-4.2.3-6.3 0-5.5-1.2-4.8-7.9-4.1-12a34 34 0 016-15.2l-1.2-1c-2.7-.1-4.4-3-3.9-5.3-.5-1.2-1.3-2.2-1.5-3.5-1.3.5-3.2.8-3.7 2.2a5.5 5.5 0 01-5 4.2 6.8 6.8 0 01-4 2.1c2.7 8.2 3.3 17.6 5.3 26l1.9 11.7c.8 3.8-.1 8.5-4.4 9.7-3.8.9-7.8-.1-11.6-.1-4-.5-8.3.2-12-1.4-4-2.1-3.7-6.6-3.4-10.3.8-7.9 1.8-16 4.8-23.3-2.2-2.4-.8-6-.4-8.7 0 0 2-7.5 2-11.4-3 0-6.7-3.6-4.7-6.5-.2-8.8 5.5-16.5 8.3-24.6 5-11.3 8-23.1 11.5-34.9 3-9.3 6.7-28.1 6.7-28 3.4-23.1-4.5-45.6-10.4-67.6-2.2-8.5-2-15.2-3.5-24.8.7 2 85.6-.3 87.2-1.3z" fill="#fff"/><path fill-rule="evenodd" clip-rule="evenodd" d="M170.5 172.4c-1.6 4.7-4 31.4-4 31.4s-22.5 99.1-24 151.3c1.5 4.3-2.8 7.5-6.8 8.1l-.5.3c-1.9 1-3.7 2-5.7 2.7l-.2.1a1 1 0 01-.3.1c.1 1.4.5 2.6 1 3.8a66.7 66.7 0 0115.3 6.3c2.7 1.4 5.4 2.8 8.1 4 1.6.9 4 2 6.8 3.1 6.3 2.7 14 6 14.8 9.8v.2c.5 2.4-.8 5.4-3.6 5.7 1.4 1 .5 3.2-1 3.6-1.3.4-2.6.4-4 .4h-2c-18.4.6-37-1-54.8-5.1-1.5-.4-3.1-.8-4.4-1.7-5.8-4.7-2.7-13.2 0-20.6 1-2.4 1.8-4.6 2.3-6.6-.7 0-1.4-.2-2.1-.4h-.1c-.7-.3-1.4-.5-1.9-1-2.5 0-1.2-4.3-.3-7.1l.6-2.1-1.3 2.9c-.8 1.9-1.6 3.8-2.7 5.6-.8 1.3-2.4 1-3.8.6l-1.3-.2a153 153 0 005.7 30.8c2 7.6 4.1 16-6.2 18.2-7.7 2-26 1.2-29.2-7.2a47 47 0 011.3-15.4l.9-5 .2-1 .4-2.5a198.4 198.4 0 014.7-20.2 13 13 0 00-.4-4.4c-3.3-1.5-5.6-3.2-6-5-.2-1.5.2-3 .7-4.5l.1-.6v-.1c3.2-10.9 7-21.4 11-31.8C87 294 96 269.7 93.7 242.3a139 139 0 00-6-28.5c-2.6-9-5.1-18-5.9-27.4-.9-3.8-1.6-7.6-1.8-11.6-.5-.1 90.5-2.4 90.5-2.4zm-97.6 239c-2.6-1-4.9-1.8-4.5-5.1a63.4 63.4 0 0029.4 3.5c-.4 1.1-1.3 2-2.6 2.5-7 2.4-15.1 1.8-22-.8h-.3zm33-20.2c.6 2.7 3.8 3.3 6.3 3.7l1 .2a214.7 214.7 0 0056.5 4.1l.7-.2h.1a1.7 1.7 0 01-.5-.6l-19.4-2c-15-1.4-29.9-3-44.7-5.2zm5.4-25.6c5.2.8 10.4.3 15.5-.6a9 9 0 00-.5 5.6c-2.6.6-4.9 2.2-7.1 3.8-3.5 2.4-7 4.9-11.2 3.7l.8-2.4c1-3.3 2.2-6.7 2.5-10.1zM74 361.7v.2c0 5-.6 10-1.3 14.9a18 18 0 0118.4-4.1v-1c-.2-1.6-.4-3.2-.1-4.8h-.3a126.9 126.9 0 01-16.8-5zm7.5-180.2c28.3 6 58 5.5 86-1.7a1037.6 1037.6 0 01-2.2 15.2 724.7 724.7 0 01-12.1 65.2c-6.7 30.8-13.4 61.3-14.3 93.5-.9.7-.8 1.9 0 2.6-.2 0-.1 0 0 .1v.7c-.2 1.6-2 2.2-3.6 2.6l-.8.2c-6.3 1.5-12.6 3-19 3.6l-3.9.1c-2.6 0-5.5 0-5.2.5h-.3c4.7-15.2 9.2-30.4 13.7-45.6l6.4-21.7c10-31.3 19.1-61.3 13.6-94.2 2.6-1.6 8.5-12.3 8-15l-3.3 4.5a46 46 0 01-5.3 6.8l-1.3-6.2-.4-1.9h-.2c.4 3.2.6 6.3.7 9.5-.4.7-.7 1.7.1 2.2 3 35.9-7.4 68.5-18 102l-6.8 22a191.7 191.7 0 01-14.7 38l-2.1-.4c-9.1-2-18.8-4-26.7-8.6 3-12.2 7.4-24.1 11.7-36 6.3-17 12.5-34.2 14.7-52.2v-.4a96 96 0 00-2.5-38.2l-3.3-11.4c-2.3-7.4-4.6-14.8-5.6-22.5a93 93 0 00-3.3-13.3z" fill="#2B283A"/><path fill-rule="evenodd" clip-rule="evenodd" d="M225 97.3l-7.4.7c-11.8.9-23.6 2.8-35.3 3.9-.3-.5-.9-.4-1.2 0-1.2-.2-2.5-1-3.5-.1h-.1a74.1 74.1 0 01-4.5-11.4 13 13 0 00-3.9-6.2c-3.4-2.4-11.2-7.2-15.3-7a3 3 0 00-1-2c1.3-2-3.5-3.4-3.9-3.1.2-7-3-13-10.2-14.3-6.4-1.4-15.5-1.6-19 5.1h-4.6c-.6-.7-7 6.3-4.4 8.7C87.2 82 74 80.8 67.4 110c-1 2.7-1 5.7-1.9 8.4a80 80 0 00-6.7 24.3c-1.6.4-1.7 3.3.1 3.7.7.1 1.3.3 1.8.7a76 76 0 002.4 22.6c2 6.8 11.6 8.7 18.4 6.3-1.2 2.2 0 3.6 0 4.7 24.2 1 50.8.4 75 1.7 3.1 0 6.4.7 9.5.3 1.8-.5 1.8-3.4 0-3.8l8.2-1.8c-.2 0 3.4-2.4 6.1-6.9 2.6-5 .9-11 2-16.5 9-.7 18-1 27-2.5 1.1 3.6 6.3-.7 8-2.5a2 2 0 001.5-1.9c.5-.8.7-1.9.1-2.7 2.5-14.3 6.3-28.9 7.6-43.3a3 3 0 001.4-.7c.6-.7.7-2-.4-2.6-.9-.5-1.6-.3-2.5-.2z" fill="#fff"/><path fill-rule="evenodd" clip-rule="evenodd" d="M120.2 61.4c.7-1.9 3.2-1.2 2.9.8a12.2 12.2 0 01-3.1 5.6 70.5 70.5 0 004 3.4c1.4 1.2 3 2.3 4.6 3.3 1.4 1 2.9 1.7 4.2 2.7 1.3 1 2.4 2 3 3.5.6 1.6.3 3.2-.1 4.8v.1c-.5 1.6-1.3 3.5-.2 5 .5.7 1.3 1.2 2 1.8a16.2 16.2 0 011.8 1.7c1.2 1.4 2.1 2.9 2.7 4.6v.1c.6 1.5 1 3.3.3 4.8-.2.4-.9.3-1-.1l-.4-2.9c-.2-1-.6-1.9-1.1-2.8a15 15 0 00-3.7-4.3l-.4-.4c-1.2-1-2.3-2-2.5-3.5-.3-1.7.4-3.3.9-5 .3-1 .4-2.1 0-3.1-.4.6-1 1.2-1.3 1.8l-2.6 3.3a77.5 77.5 0 00-3.7 5l-1 1.2v.7c-1.6 2.1-3.9-2.4-4.5-3.5-1.2-2.3-2-4.7-3.2-7a55.3 55.3 0 00-4.3-6.9c-1-1.3-2-2.5-2.9-3.9a28 28 0 01-7.2 4.3L95 79.8l-.8.3c-4.9 2-9.8 4-13.8 7.3a35 35 0 00-9.6 15.1c-2.4 6.5-4.4 13.3-6.2 20a361.3 361.3 0 00-2.7 10.3c-.7 3-1.3 6.1-2.2 9.1 1.7 0 3.7.6 5.2.8 6.8 1 13.5 2.3 19.9 4.8.7.3 1 1 .8 1.7l1.4-.4c-.5-.7-.3-2.1-.3-3l.3-3.4c.1-2.1.3-4.3.6-6.4v-.5l1-7v-.3l-.6-1.8-1.8-4.5c-.1-.2.2-.3.3-.2 1 1 1.9 2.2 2.6 3.5v-.6c.3-1 .5-1.9 1-2.6h.3c.5.9.6 2 .7 3v3.7l-.3 7c0 2.2-.3 4.4-.7 6.7v.4l-.5 3.2v.3l-.5 2c5.7-1.7 11.5-3.2 17.2-4.7 4.1-1.2 8.3-2.2 12.4-3.3l.8-1.1c1.2-1.1 2.7-1.6 4-.8v.3l-.8.5 2.5-.7 5.7-1.5c3.5-1.7 7.2-3 11-4.2l.4-.1c1.9-.7 3.8-1.4 5.8-1.8 1.4-.2 3 0 3.7 1.6.7.4 1.4 1 2 1.6l1.4 1.2h.1c.4.4.7.6.8 1.1 0 .3-.1.7-.5.6-1 0-1.8-1.2-2.5-2l-1.6-1.7c-.3.2-.7.1-.8-.2-1-1.8-3.6-.5-5-.1l-2 .6-3.1 1-8.5 2.5c.3.3.3.8-.2 1-2.2.8-4.7 1.3-7 1.9l-4.4 1.1-.5 1.4c-.2 2 .3 4.2.8 6.1l.1.3c.4 1.5 1 3.4 2.4 4.3.3.3.7.4 1.1.5l7.7-4c.5-.2 1 .1 1 .5l2.7-.7c1.4-.4 2.4-1.3 3.7-2 2.6-1.2 5.1.3 7.4 1.4l.5.3c1 .5 3 1.4 3.6 0 .4-1.2-1-2.6-2-3.2a23.4 23.4 0 00-6-1.8c-.8 0-1.7 0-2.5-.4-.4 0-.5-.7 0-.8 1.2-.3 2.7 0 4 .3l.7.2c1.4.3 2.7.7 4 1.4a7 7 0 012.3 2c.5-.5 1.2-.5 1.9-.3l.3.1c.6.2 1.1.3 1.7.2l.3-1.3a308 308 0 018.9-34.2l.2-.7c.5-1.6 1-3.4 1.8-4.9a5.8 5.8 0 013.7-2.6c1.7-.5 3.6-.8 5.3-1.1l1.2-.2-.8-1.9-1.4-3.4-.3-.9c-.7-2-1.5-4-2.6-6s-2.6-3.6-4.5-5c-3.8-2.8-8.4-4.2-12-7.2-.2-.1 0-.3.2-.2 2.4 1.2 5.1 2 7.7 3l.5.3c2 .8 4.1 1.7 6 3 1.9 1.4 3.4 3.3 4.6 5.4 1.2 2.2 1.9 4.5 2.7 6.8l.2.6 1 2.7c.4.7 1 1.5 1.2 2.3l2.2-.3c15.5-2.6 31.1-4.1 46.8-4.6.6 0 1 .6.9 1.1l-4.4 26.8-2 11.6-1 6c-.2 1.5-.4 3.1-.9 4.7a9 9 0 01-2 3.8 7.2 7.2 0 01-4.1 2c-3.9.6-7.8.9-11.7 1.3l-20.8 2.4c.3 2.8.3 5.5.2 8.3v1.5l-.4 3.7c-.2 1.5-1 2.8-2 3.9a23.5 23.5 0 01-6.8 5l-.2.1c-1.2.5-3.4 1.2-5 1 .1 1 .5 2.2.2 3.2-.2.5-.8.8-1.2.4-.8-.9-.9-2-1-3a83.4 83.4 0 01-.7-20.2 73.2 73.2 0 01.2-2l-1.8.2c-2.9.3-5.7.6-8.6.6a1 1 0 01-.8-.4 1 1 0 01-1 .5c-4 0-7.7-1.3-11.4-2.8-1.8-.8-3.6-1.7-5.5-2.4-1.7-.8-3.5-1.3-5.2-2l-4.4 2.2-.1.3c-.3.6-.9 1-1.5 1.2-.5.2-1.1.3-1.7.2l-10 5.3-3.4 1.7-20 10.5-.5.2a60 60 0 01-7.4 3.2v2.2c.1.8.3 1.8-.4 2.4-.3.3-1 .3-1.1-.2-.5-.8 0-2.1 0-3l.2-1c-3 1-6 1.3-9 .8-2.9-.4-5.2-2.3-7-4.5-2-2.4-3.3-5.2-4-8.2-.9-3.3-1-6.8-.9-10.3 0-3.7.2-7.4.6-11l-1.5-.3c-.3.4-.7.6-1.2.6-1 1 1.5 2 2.2 2.3.3.1.3.5 0 .5H60c-1.2 0-2.4-.2-3.1-1.3-.6-1-.4-2 .3-2.7.4-4 1.4-8.1 2.4-12.1l3.1-11.8.5-1.7c1.8-6.2 3.6-12.3 6-18.2a30.4 30.4 0 0110.9-14.5c4.4-3.3 9.7-5.2 14.9-7.1h.2l8-3c2.3-1 4.6-2.2 7-3.1a11 11 0 01-.3-.5v.1c-.3.2-.7 0-.8-.1-.6-.5-.4-1 0-1.6l1.3-2 .2-.4c.7-1.1 1.4-2.2 2.3-3a5 5 0 011.4-1 11.8 11.8 0 015.5-.5m61.5 94l-2.2.2-7.2.8-5.2.5v.8a399.4 399.4 0 000 10.4l.7 6.7v.5l.1.2.7.4c.4.5 2 0 2.6-.2 1-.4 2-1 3-1.6l2.3-2 .6-.6c.6-.7 1.3-1.3 1.6-2 .5-1.1.6-2.4.8-3.5l.6-4.2m-61.5-21h-.3l-24.6 6.5-12.2 3-.7.2c-3.2.8-6.4 1.8-8.9 4 0 .2-.2 0-.1 0 2.6-2.9 6.4-4 10-5.1l2-.6c-4.9-1.7-9.9-3.2-15-4.3l-4-.8-2.7-.7-.7-.2v2.3l.1 9.6v.5c.2 3.6.5 7.2 1.8 10.6 1 2.7 2.7 5.3 4.8 7.3 1.1 1 2.3 1.8 3.7 2.2 1.3.3 2.7.4 4.1.3 6.6-.5 12.5-4 18.2-7l28-14.6a4.6 4.6 0 01-.6-.6c-1.3-1.3-2-3-2.4-4.8-.4-1.8-.7-3.7-.8-5.6m12.2 13c0-.1.2 0 .2 0 0 .7-.4 1.4-.7 2v.1a54.4 54.4 0 01-9.8 15.6c-.5.6-1.4-.2-1-.8a96 96 0 015.4-9l3-4.3 1.2-1.8.3-.4m98.6-60.1c-8.2.2-16.5.8-24.6 1.6a337.5 337.5 0 00-22.8 3.1l-4.7.9-1 .2c-1.5.3-3.4.4-4.8 1.2-1.5 1-2 2.8-2.4 4.3a340.2 340.2 0 00-7.6 27l-2.5 10.9-2.4 9.6.4-.2c4.2-.9 8.5-1.3 12.7-1.8h.4l13.2-1.5 29-3.3c1.8-.2 3.6-.2 5.3-.7 2.8-.8 3.5-4 4-6.5 1.4-7.7 2.5-15.4 3.9-23m-68.2 28.1c-1.1 0-2.7-1.1-3.5-1 .4.7.6 1.6.4 2.5-.8 2.6-4 1.2-5.6.5-1.3-.7-2.5-1.5-4-1.8-1.6-.3-2.7.3-4 1a12 12 0 01-3.6 1.3c-.7.2-1.3.2-2 .1a.8.8 0 010 .1l-.4.2a64.2 64.2 0 018.8 2.5l1.4.5c3.4 1.3 7 2.6 10.8 2.6.2 0 .4 0 .6.2m-5.2-16.7c1.1-.1 2.1 0 3 .7 1.1 1 1.8 2.4 3.4 2.5.4 0 .5.6 0 .7-1 .4-2-.2-2.8-1l-.5-.6c-.8-.8-1.5-1.4-2.8-1.4-1.4 0-2.8.4-4.2.6a151.9 151.9 0 01-4.8.3l1.8-.4m5.8-6h.2c1.6-.1 3.1-.1 4.5.7l.3.2c1.3.8 2.7 1.7 3.6 3 0 .2-.1.5-.4.4-1.5-.4-2.7-1.5-4-2.4-1.5-1-3-.8-4.7-.6l-4.9.6-4.5.8c-.2 0-.3-.3-.1-.4 1.5-.8 3.3-1.1 5-1.5M92.4 91.6c0-.1.2-.2.2 0 1 1.8 1.6 4 2.2 6.1a88.8 88.8 0 012.8 19.8c0 .6-1 .8-1.1.1l-2-13-1.2-6.7m9.5-3c0-.3.3-.4.4-.2a27 27 0 011.5 16.6c-.2.8-1.5.5-1.3-.4M130 90.2c0-.2.2-.2.3 0 1 1.3 1.4 3.2 3.2 4 .9.3 1.8.3 2.6.9.5.4 1 1 .5 1.7 0 .2-.4.3-.6 0l-.7-.9c-.5-.3-1.1-.3-1.7-.5a4 4 0 01-1.8-1.1m15-27.6h.2v.4l.3 1.2.3 1.4.7 2.8a36.6 36.6 0 001 3.1v.1l.2.1v.4c.2.6.4 1.2 0 1.7l-.6.4-1.1 3.1-.2.3c-.6 1.5-1.3 3-2.3 4.3-1.2 1.4-2.7 2.3-3.7 3.8-.5.7-.8 1.5-1 2.3l-.1.3c-.2.5-.4 1-1 1.4h-.5c-1.1-1.2 0-3.4.7-4.5.9-1.5 2.2-2.5 3.5-3.7 1.4-1.2 2.3-2.9 3.2-4.6l1.6-3c-.5-.5-.7-1.5-1-2.2a25 25 0 01-.8-6.8v-.3m2.6 3.2c-.1-.1.1-.3.3-.3 1 .2 2 .9 3 1.4h.1c.8.4 1.5 1 2 1.7.3.9.3 1.9.2 2.8 0 1.2 0 2.4-.3 3.5-.1.5-.6.7-1 .6-.6 1.6-2 2.8-3 4-1.4 1.7-1.2 4-1 6 0 .7-1 1-1.5.5l-1.2-1a148 148 0 01-1-.9l-.3-.2-.7-.7c-.4 0-1.2.9-1.5 1.2-.5.5-1 1-1.4 1.7-.1 0-.3 0-.2-.2.4-.8.8-1.6 1.4-2.4v-.1c.4-.5 1-1.4 1.6-1.5.8-.2 1.5.6 2.1 1l.8.7c0-1.5.2-3 1-4.3.5-.8 1.3-1.5 2-2.3.8-.8 1.2-1.9 1.8-2.8l.4-.2.2-2.1v-.2c.1-.8.3-1.8 0-2.5-.4-.7-1.2-1.1-1.8-1.6l-.5-.4m-35.6-9.5l-.9.7c-.8.9-1.4 2-2 3l-1 1.8c0 .3-.2.5-.4.7 0 .2-.2.4-.3.5 0 .2.2.3.3.5l4.1 4.6a37 37 0 014.3 6.3c1.2 2.2 2.2 4.5 3.3 6.8.6 1.1 1.2 2.2 2 3.2l1.5-2.1 2.8-3.5a92.3 92.3 0 012.6-3l.4-.4c.6-.6 1.4-1.7 2.3-2.1a4.3 4.3 0 00-.3-.6c-.9-1-2.1-2-3.3-2.6l-.8-.5a53.6 53.6 0 01-12.2-10l-.4-.5m3-3.7c-1.5.1-3 0-4.2.5l3.3 3.3c0-.7.3-1.4.5-2.1" fill="#2B283A"/><path d="M199.3 124.5l-4.9.4a1 1 0 00-1 1.2l.1.3c0 .5.6 1 1.2 1l4.8-.5c.6 0 1-.6 1-1.2v-.2c-.1-.6-.6-1-1.2-1zm-2.4 3l-2.3.3a1 1 0 00-.9 1v.2c0 .5.5.9 1 .8l2.4-.2c.5 0 .9-.5.8-1v-.2a1 1 0 00-1-.9zm.1 2.5l-4.8.5a1 1 0 00-1 1.1v.3c0 .6.6 1 1.2 1l4.8-.5c.6 0 1-.6 1-1.1v-.3c-.1-.6-.6-1-1.2-1zm-7.7.7h-.3a1 1 0 00-1 1.2v.3c.1.6.7 1 1.2 1l.3-.1c.6 0 1-.6 1-1.1v-.3c0-.6-.6-1-1.2-1z" fill="#2B283A"/><path fill-rule="evenodd" clip-rule="evenodd" d="M135.2 8.6c6.6 0 14.4 3.2 15.1 3.3.4 0 1.8 1 4.2 3.1l-2.6 5 .2.3 2.5 2.5c5.6 5.7 6.6 28 5.3 35.7-1.4 7.8-3.8 15.4-15 15.4A47.5 47.5 0 01119 65a5.5 5.5 0 00-4.3-2l-.2-.3h-.2a16 16 0 01-4.8-1.3c-1.9-1-4-6.7-4-7.9 0-1.2-3-10-3-11 0-.8-4.1-4.4-4.1-5.6 0-1.1-.8-1 0-5l.2-1.3c.9-4.3 2.6-11.4 9-14.5a86.5 86.5 0 0127.5-7.5z" fill="#fff"/><path fill-rule="evenodd" clip-rule="evenodd" d="M106.6 16c3.6-3.8 23.6-9.6 33.8-8.3h.3c.8 0 1.6.2 2.4.5 2.5.6 5.1 1.5 7.2 3 1.8 1.2 7.3 3.2 5.7 6.4.6 1.2.8 2.6.4 3.7 0 .4-.2.8-.3 1.1 1.3 2 2.3 4.1 3.1 6.2a65.2 65.2 0 012.5 15.8c.5 10-.6 22-9.4 28.4A15.5 15.5 0 01133 72c-.3-.4-2-1.5-1.4-1.7l.5.5-.2-.2c-.3-.2-.6-.6-.2-.6v.1l.3.2c-.3-.3-.4-.6 0-.4l.5.5-.1-.2c-.2-.1-.2-.1 0-.3-.4-.4.2-.1.2 0 .4 0 .8.7 1 .8 10.9 8.3 26.6.9 26.4-22.4V48a55 55 0 00-3.8-21.8 19.4 19.4 0 00-1-2 18.4 18.4 0 00-.8-1.3 12.1 12.1 0 01-2.5-.4l-.8-.3-11.7.7-1.3.1c-3.3.2-6.8.6-9.5 2.6-2.6 2-2.6 5.6-5 7.7-3.1 2.2-3.2 4.2-3.8 7.4 0 2.5 1.7 6-1.4 7 .6.8-.2.4-.2.2.4.8-.3.3-.3 0h-.1c.4.7-.3.2-.3 0-.9-1.4-2.8-1.6-4-1.2h-.2c-5.6 1.2-4.1 12.8 1.6 11.7l.3.1c-.1-.3.2-.2.2-.1 0-.7.7.3.6.3v-.4l-.1-.3c.3-.2.4.5.5.6-.2-.3 0-.5.1-.4a24 24 0 005.9 7.9c.9.8 2.3 1.3 3.2 2l.3.2.2.3.2.3s0 .1-.1 0h-.2v.3l-.2-.1.2.3a.5.5 0 01.1.3 7 7 0 01-.3 0c0 .1.2.3 0 .2a5 5 0 01-.3-.1h-.1a7.6 7.6 0 01-1.2-.5l-1-.7a7.4 7.4 0 01-.8-.6 19 19 0 01-4.7-4.4c-2.2 1.8-6.5 0-9.2-1.4-2.3-1.3-3.3-3.7-3.5-6.3-.5-3.5-3.4-4.7-3.2-12.4a1.5 1.5 0 01-.3-.1 1.5 1.5 0 01-.2-.2l-.2-.2h-.1l-.2-.3-1.3-1.9v.1c-1-1.4-1.9-3-2.1-4.6a8 8 0 010-3.5 39 39 0 019.3-16.7zm25.5 54.5v-.1a.4.4 0 000 .2 2.1 2.1 0 010-.1zm8.2-60.9c-6.9-.6-13.6 1-20.2 2.8l-.5.1c-3.7 1-7.6 2-10.8 4.3a30.9 30.9 0 00-8.7 13.7A9.2 9.2 0 00102 41c.3-2.6.7-5 1.5-7.5.1-.4 0-.6.3-.6.5 6.6-1.9 11.5 2.9 19.4 2 3.7-.3 6.4 5.6 8.4h.1a7 7 0 003.8.6l-.1-.2c-.1-.1-.2-.2 0-.3a18.4 18.4 0 01-.4-.8h-.2v.2c-.3.1-.7.2-1 .1l-1-.1h-.1a5 5 0 01-2-1c-5.4-3-4.8-13.6 1.9-14.6.1-6.6 3.3-17.8 8.5-24 4.7-5.9 17.6-8.4 26.6-7.5l.4.1c1.3.1 2.7.7 4 1-1-.7-2-1.2-3.2-1.6-2.4-1.4-5-2.2-7.6-2.8a7.4 7.4 0 00-1.6-.2zM113 50c.3-.2.3 0 .4 0 2.6-.3 5.4 2 6.8 4l-.5-.4c.6 1-.5 0-.6-.3h-.1l.4.5.1.1c.7.6.6 1-.2.2v.1c.5.3.8 1 0 .3 0 .6-.8-.5-.9-.5a12 12 0 00-5.8-2.6c-.4 0-.6-.2-.4-.4-.5-.1-.4-.3-.2-.3-.3-.2 0-.4.2-.3-.1-.4.4-.2.4-.2.3-.4.3 0 .4-.2zm-5.5-21.3c1.3-.5 5 .9 4.7 2.7-.2.4-.8.7-1.2.4l-.5-.3-2.8-1.7c-.5-.3-.7-.9-.2-1.1zm7.1-2.7l-.5-.3c-2.5-1.7-6.2-4.3.3-1.6.7.3 1.7.5 2.1 1.2.7 1.3-1 1.4-1.9.7zm.3-7.6c-.2-.8 2.4.1 3.2.4.8.3 1.6.5 2 1.2.6.8-.4 1-1 .6l-4.2-2.2zm6.6-3.7c-1.5-1.6 2.4 0 3 .4.5.3.4 1 0 1.1-1.2 0-2-1-3-1.5zm6.6-1.7c-2.3-1.7.8-1 1.8-.3.8.7 0 1.8-1.8.3z" fill="#2B283A"/><path fill-rule="evenodd" clip-rule="evenodd" d="M139 52.5c2.6-.3 5 .5 7.4.9a34.7 34.7 0 004.7.4c0-.2.2-.4.5-.6.6-.2 1-.4 1.7-.3.5 0 1.1 0 1.7.2 1 .2 2 .6 2.8 1.3 1.8 1.8 1.5 4.5.2 6.4-2.8 4-8 4.1-12.4 4h-.4c-4 0-9.7.6-11.5-4-.6-1.6-.5-3.5.3-5.1 1-2 3-3 5-3.2zm12.5 6.5l-5.5.2a74.8 74.8 0 00.3 2.5v.6a.6.6 0 01.3.2v.1c1.5 0 3 0 4.5-.3l.2-.4.1-1.8.1-1.1zm-7 .2H140l.3 2c.2.8-.5 1.2-1 1.2h.2c1.7.3 3.5.2 5.2.2-.1-.5 0-1.2 0-1.6a67.2 67.2 0 01-.1-1.8zm-9-.1l.3 1c.6 1.3 1.9 2 3.2 2.2-.2 0-.4-.2-.4-.6l-.2-2.5-2.9-.1zm21-.3h-2.1l-2 .2.2 1.2.1 1.7a6.7 6.7 0 003.3-2.2l.5-1zm-17.7-4c-1.2.2-2.3.8-2.8 1.8a4 4 0 00-.5 2l3-.1v-1c0-.8 0-1.9.3-2.8zm5.8 0h-.5c-1.4-.2-2.7-.3-4.1-.2a8 8 0 00-.6 0l.3 2.8.1 1h.3l4.4-.2v-1.1l.1-2.2zm7 0a28 28 0 01-6 .1v1l.2 1.8v.5l5.5-.3h.3v-1l.2-2-.2-.2zm.6.2l.2 2.9 1.2-.1h.6c.8 0 1.8-.3 2.6-.1a2 2 0 00-.8-1.9c-1.1-.8-2.5-.5-3.8-.8zm-4-8.5c1.7-1 6.2-2.1 6.5 1.1.1 1.5-1 2.7-2.3 3.3-1.2.5-3.4 1-4.4 0-.9-1 .3-2.5 1.3-1.8.6.4 1.8.1 2.4 0 .7-.3 1.6-1 1.3-1.7-.2-.8-1.3-.9-2-1-.9 0-1.8.3-2.8.3-.2 0-.2-.2 0-.2zm7.4-5.2c2.4-.1 4 2.5 3.3 4.7 0 .4-.5.7-.9.7h-.2c-.4-.1-.8-.5-.7-1 0-1.1 0-2.3-1.3-2.5-1-.2-1.6.7-1.6 1.7l-.4.2c-.7-.5-.9-1.4-.6-2.2.4-1 1.3-1.6 2.4-1.6zm-18.2.5c1.8-.5 3.7.4 4.6 2 .3 0 .6.3.6.6-.1.6-.2.9-.5 1.3-.6.6-1.6.3-1.9-.5-.2-1-1.3-1.6-2.3-1.3-1.1.4-1 1.6-1.9 2.3h-.3c-.8-.4-.7-1.6-.4-2.3.4-1 1.2-1.7 2.1-2zm-2.4-5.3c1.5-1.5 5.2-3 6.2-.2.2.5-.2 1.2-.7 1.3-1 .2-1.7-.2-2.6-.1-.7 0-1.4.3-2 .7-1.6 1.2-2 3.3-3 4.8h-.2c-.2-2.3.8-5 2.3-6.5zm18.8-1.5c1-.3 2-.3 3 0a5.8 5.8 0 013.4 2.7l.3 1c.8.4 1.1 1.4.4 2v.2c-.4.4-1 .5-1.5.4-1-.4-1.2-1.2-1.6-2.1a4 4 0 00-1.2-1.6 5.8 5.8 0 00-4.8-.8s-.2 0-.1-.1c.3-.4.4-.7.8-1l1.3-.7z" fill="#2B283A"/></svg>