<svg width="229" height="457" fill="none" xmlns="http://www.w3.org/2000/svg"><path fill-rule="evenodd" clip-rule="evenodd" d="M60.2 417.6c-1-4.5 3.5-6 6.3-7 2-1.4 9.5-5.9 15.3-11.5 4.8-4.6 8-10.4 9.4-11 0 0 1.3-.8 1.5-1.4.8-3.5.1-6.7 0-8.9a17 17 0 01-6.5-2.8c-.5.2-1.2.4-1.4-.3-1.4-9.7-2-19.4-3.3-29.1-4.5-37.1-5-80.4 2.8-114.3l-.2-4.7c-1.1 0-1.7-1.1-2.6-1.7-1.3-1-2.9-1.9-2.8-3.7-.3-.2-.3-.4-.1-.7-1-4.3 3.5-8.9 4.7-12.5-2.3-22.6.9-44-.9-66.7-2.2-1-.7-6.8-.6-9.2 1.3-15.4 9.3-30.7 23.8-35.7.8-.2 2-1.1 2.7-.5 1.4-.5 3.1.5 4.2-.7a10.5 10.5 0 001.2-3c2.5-7 3.2-8.8 11.2-9.2 3.6 0 8.4.1 10.5 3.6.9 1.6.6 3.4 1.1 5 1 3.2 5.3 1.7 7.5 3.3 17.9 5.7 32.5 17.4 37.4 36.1 1 2.3 2 4.5 2.9 6.9.1.3.5 1.5-.4 2l-.4.3c5.4 25 5.7 46-12.3 62.8-1.3 7.1 2.1 17 .8 23.9.8 1-.2 2-1.2 2l-.6.3c1.6 21.8-5 51.3-7.8 62.9-.4 7 2 12.7 7 16.5a40.4 40.4 0 0114 34.2c2.4.4 4.7.7 7 1.5 9.7-1.7 9.6 17 10.2 23.7 1 11 1.7 27-8.8 34.1-2.8 2-8.4 4.4-11.3 1.1-1-1-1.1-2.2-.8-3.3-4.7-6.7-3.4-15.5-3.9-23.4-1.4 0-2.8.6-4.1.4-1.4-1.2 3.6-.9 4.1-1a64 64 0 00-.3-3.7l-2.5.6c-.5 0-.8-.5-.5-.8.6-.6 2-.5 3-.6l-.6-3c-1-.1-2 .5-3 .4.7-.5 2-.3 3-.7-.6-3.2-1.8-6.2-3-9.2-2.6 1.2-5 1.2-7.6.9-1.1.1-1.7 0-1.8-1.4v-.1c-2-12.6-8.9-24.6-21.5-38.2a48 48 0 01-7.2-9.7c-3.8-7.7-4.4-16-7.3-24-2.7-8-6.4-15.6-10-23.2-.4 4-1.1 7.9-1.8 11.7a105.4 105.4 0 00-.5 41.3c3.4 19 1.7 38 2.5 57 0 1.2-.2 2.1 0 3.3l-.1.2h-.2c-1.7 1.2-4 1.4-5.9 2-.8.7-.6 1.7-.6 2.5-.2 3.4-.5 6.8-.2 10.4 1.5 2.8 3.4 2.2 3.7 6.2.4 4.6 1 9.5-1.3 13.6l.9.1c1.2 2.7.5 4.4-2.5 5.5-14.6 5.7-35 10.9-50.3 6.6-.3.2-.7 0-1-.5-.3-.4-.5-1-.5-1.3.3-1.3 0-3.9 1.5-4.2z" fill="#fff"/><path fill-rule="evenodd" clip-rule="evenodd" d="M59.5 422.2c13.1 5.9 36.9-1.5 49.8-5.8 3.4-1.3 4.6-1.5 3.6-5.5-1.8 3.5-5.7 4.4-9.5 5-12.7 3-25.6 8.3-39.2 5.7-2-.3-4-1.4-4.5-3.4-.4.8-.2 2-.3 3l.1 1zm53-21.8c-.2-2.4-.6-4.9-2-7 .2 3.4-1.8 9.1-6.3 7.2-1.2-.6-2-2-2.7-3a33.8 33.8 0 00-10-8.9c-2.2.4-3.2 4.3-4.6 6 1.6.7 4.4 2.3 4.7 3.9-2-.7-3.7-1.9-5.8-2.3a39.7 39.7 0 01-2 2.6c1 .4 4.7 2.4 4.7 3.3-2-.3-4-1.3-6.1-1.7l-2.7 2.8c1.4.6 2.8 1.2 3.6 2.5 0 0 0 .1-.1 0-1-1.2-2.8-1.4-4.4-1.7-2.4 2.3-5 4.2-8 5.7-3 1.7-7.6 2-8.8 5.6-1 3.5 2 3.9 4.8 4.1 2.8.4 5.6.5 8.3.3 8.6-.4 16.7-3 24.9-5.1 9.9-1.9 13.1-3.3 12.5-14.3zm-3-20.7l.1.4.1-.4h-.1zm-16 7.9a42 42 0 0110.2 9.8c1.7 3.2 4 1.3 4.6-1.3.5-5.7.1-10.6.7-16.3-5.3.7-10.7.2-15.9-1 .7 2.5 1 3.5 1 6.1 0 .9 0 2-.6 2.7zm-8.5-210c-.1 8.4-.2 16.8.1 25.2 7.4-19.1 5.2-39.9 6.2-60-2.2-.7-4.5-1-6.8-1.3 1 12.5.7 23.6.5 36zm41.8 42.4c18.2-8.7 20.7-31 35.1-43.2.5-.4.9-.9 1.1-1.4-1-10.4-1-19.5-2.2-30-1.3-2.4-1.9-5.3-2.9-8-.5-1.5-1.2-3-1.3-4.8-.1-.5.7-.8.9-.2 2 3.7 2.9 7.8 4.3 11.8.2 0 .5 0 .5-.2v.1a53 53 0 0119.3-4.6c.4 0 1.3-.1 1-.7-5.9-21.5-16.5-36.3-39-43.3 2.9 16.7-39 17.7-38.4 2.2-15.8 6.7-22.6 25.7-20.8 41.7 1.5-.4 5.4 1.2 7 2.1.2-6.5-.5-14.3 0-20.1 2.3 29.6 6.8 65-8 92-1 1.8-2.5 3.5-2.5 5.6v.5c.5.5 1.4.6 2 .7 1.5.3 3 .6 4.4 1.2 14.3 7.5 25.5-2.1 39.5-1.4zm-4.5 13.7a7.1 7.1 0 01-3.2 3c.2.3.2.7.2 1 2.5.6 1.8 1.8 3.5 2.3 1 .3 2.1.4 3 1.1 3.3 3 4.1 2.8 7.6.1 0-.2 4.7-4.8 6.1-7.4 1.2-2.1 2.5-4.3 4.4-6 9.1-9.3 18.8-18 27.7-27.7 17.7-17.6 14.3-37.6 10.3-59.6-6.6.8-13.2 2.4-19.1 5.2 2 9.8 2.2 18.6 3 28.4.4 1.3 0 3.6-1.7 3-15.9 12.7-17.7 38.6-38.6 46-8.5 3.5-5 6.3-7.7 12.8 1.5-.2 2.9-1.5 3.5-2.8.4-.6 1.3 0 1 .6zm48.1-7.7c.4-2.5 0-5 0-7.4.3-4.5.1-8.9 0-13.4L155 220.4c5.4.7 11.6 1.2 15.3 5.6zm0 3.6a1.2 1.2 0 01-.2 0 125.2 125.2 0 01.3 0zm6.2 137.8c1.5 0 7.7-.3 8.5.7-.9.4-2 .2-3 .2-1.7 0-3.5.2-5.2.5l.3 2c1.8.2 5.2.3 6.3 1.5-2 .3-4 0-6 .4l.2 2.8c.8.1 5.5.9 5.5 1.6-1.8.2-3.7 0-5.5.1.4 5.6-.9 22.5 6.8 23.6 6.7-.4 9.6-11.2 10.5-16.4a76 76 0 00-2.3-36.8c-1.4-3.2-5.3-3.8-8.6-4l-.4 1.7c1.4 3.2 1.9 6.8 2 10.3-.4 5-6.6 8.8-11 5.5.8 2 1.4 4.2 1.9 6.3zm8.9 36.2c13.2-2.9 15.4-18.2 14.5-29.5-.7-7.9.2-24.4-7.1-29 9.4 8.5 8.6 66.8-12.2 56.6.5 1.6 3.1 2.1 4.8 1.9zm-2.6-54.8l-.1-.6c-1.5 4-4 7.8-7.8 10.1 1.5 1.8 4.3 2.3 6.2.9 3.3-2.5 1.9-7 1.7-10.4zM137.6 93.6v.1h.6l-.6-.1zM112.4 95zM58.2 419.8c0-1 0-2.3 1.2-2.6-.5-4.3 3-6.8 6.8-8 3.2-1.9 6.8-3.3 9.7-5.6-1.3-.3-2.7-.6-3.9-1.2-.9-.4-.5-1.9.5-1.8 1.8.3 3.4 1.2 5 1.8l2.7-2.4c-1-.2-2.4-.2-3-1.2a1 1 0 010-1c1.2-1 3.3 0 4.6.4l2-2.3c-1 0-3.7.1-3.2-1.6 1-1.3 3.1-.5 4.5-.2 1.8-2.2 2.4-5.7 5.3-6.9 0-.5.8-.5 1.2-.3.7-3.3.7-5 .5-8.4-2.1-.6-4.2-1.4-6-2.6-.8.2-1.7 0-1.9-1-.5-3.3-.8-7.1-1.1-10.5h-.2c-.6-6.2-1.2-12.4-2-18.6-4.2-35.7-5.2-79.3 2.8-114.5 0-1.4 0-2.7-.2-4-1-.3-1.5-1.2-2.3-1.7-1.4-1.2-3-1.9-3-4-.4-.3-.4-.7-.2-1a9 9 0 011.3-6.2 77 77 0 003.5-6.4c-2.3-22.3.8-43.8-1-66.2-2-1.1-.7-7.5-.5-9.6 1.2-14 7.8-29.3 21.6-35.1 1-.9 2.4-1.1 3.5-1.6.8-.4 2.1-.7 2.7.2.6-.3 2.5-.5 3.1-1l.2-.2h.2c.6-.9 1.1-6.7 1.9-6.3.8 2 .2 4.3-.6 6.3-.5 1.8-1.2 6.4-4 5.2-.5-.3-.2-.9.3-1 1.3-.3 1.6-2.3 2-3.4-.5.5-3.3 1.3-3.6 1.4-6 13.8 30.3 13 33.1 3.6 2-3.3.3-5-3.3-5.6 2.6 3-.7 3.6-2 .7a10 10 0 01-1.4-7c-.2-.8-.4-2 .9-1.7 0-.1 0 0 0 0 .5.8.2 1.8.4 2.7 0 1.3.5 2.7 1.1 4 1.3.1 2.5.4 3.7.7.8-1.5 5.5 1.4 6.8 1.8a50 50 0 0134.3 35l2.9 6.8c.3 1 .3 2.3-.7 3 5 22.4 6.1 45.9-12.4 62.7-.4 1.9-.2 3.8-.2 5.7-.1 4.2 3.5 18.7-.7 20.6 1.2 18.8-3.4 44.4-7.9 62.6a17.8 17.8 0 006.7 15.8c9.6 7.2 13.7 19.3 14.8 30.7.2 1.2 0 2.4-.3 3.5 2.1.4 4.1.7 6.1 1.4 11.2-2.1 10.4 21.9 11.3 29 .6 10.6.2 23.2-9.5 30-3.2 2.4-9 4.6-12.2 1.1-.9-1-1.3-2.3-1-3.7-4.5-6.7-3.5-15.2-3.8-22.7-1.2 0-2.5.5-3.7.2-.9-.2-1-1.3-.2-1.8 1-.6 2.6-.4 3.8-.4l-.1-2.2c-1.2.3-2.9 1-3.2-.7-.2-1.5 1.7-1.6 2.9-1.6l-.3-1.7c-1 0-1.9.6-2.7.4-.5-.2-.7-.7-.3-1.1.6-.7 1.8-.6 2.7-.8-.6-2.7-1.5-5.2-2.5-7.8-1.7.6-3.6 1-5.4.9a9 9 0 00-3-.2c-1-.2-1.3-1.4-1.4-2.3a1 1 0 010-.1 76.1 76.1 0 00-21.3-37.5 51.3 51.3 0 01-7.3-10c-3.7-7.5-4.4-16-7.3-24-2.5-7.2-5.7-14-9-21-1.2 9.1-3.6 18-3.9 27.3-.4 11.6 2.2 23 3.3 34.6 1.6 12.2.7 24.5.8 36.8 0 3 0 6 .2 9v3.1c.1.6-.3 1-.7 1-1.7 1-3.8 1.5-5.7 2-.5.3-.3 1.3-.4 2-.2 3.3-.4 5.9-.1 9.3 1.9 2.8 3.2 2.3 3.7 6.5.3 4.4 1 9.1-1 13 .9.2 1.2 2.8 1 3.5-.2 2-1.9 2.6-3.5 3.3-12.1 4.5-37.9 12-50.3 6.8-1 .5-2-.5-2.2-1.3-.4-1 0-1.9 0-2.8z" fill="#2B283A"/><path fill-rule="evenodd" clip-rule="evenodd" d="M91.3 60.5c1.3-7 4.4-13.5 9.2-18.7.6-.6 1-1.6 2-1.7.8-1.8 2.4-3 3.7-4.4 2.8-2.8 5.5-6 9.2-7.7 17-7 33.3 12.8 36.7 27.8 3.5 12-.3 28.5-15.2 29-2.1 2.8-5 4.7-8 6.4-4 2.7-8.5 3.7-13.3 2.3-4.7 1.2-9.5-2.7-12.4-6.2-2.2-2.7-3.7-6-5.8-8.7a5.2 5.2 0 01-4.8-4.5 21 21 0 01-1.3-13.6z" fill="#fff"/><path fill-rule="evenodd" clip-rule="evenodd" d="M128.2 25.6a20 20 0 00-9.4.2A32 32 0 00103.7 36c-4 4.4-7.4 9.5-9.8 15l-.1.3A29.7 29.7 0 0092 74.5c1 3.2 3 6.4 6.4 7.1 2 5 5.7 9.2 10.5 11.5 3 1.5 6.3 2 9.6 1.8 3.3-.3 6.5-2 9-4 .2 0 0-.2 0-.1A19.8 19.8 0 01117 93c-6-.2-11.4-3.4-14.5-8.4-.8-1.3-1.5-2.6-2-4v-.3c0-.5-.2-.8-.6-1a18.5 18.5 0 01-.4-1.5l-.5-3.5-.1-2.8c0-.8 0-1.6.2-2.3.2-2.5.6-5 1.5-7.3.9-2.4 2.3-4.4 4-6.2 3.8-3.9 8.5-6.7 12.2-10.6l.2-.2 1.4 1.4 2 2.1c4.4 4.4 8.6 8.8 12.3 13.6a64.1 64.1 0 017.8 13.3l.3.6.8 2.4c-.5.5-1 1.3-1.4 2a18 18 0 01-3.5 3.6h-.1c-.8.6-1.7 1-1.8 2 0 .5.3.9.7 1 1 .4 2.2-.7 2.9-1.4l1.2-1.3h1l1.7-.2c4.5-1.2 7.9-5 9.7-9.1a32 32 0 001.3-18 42.3 42.3 0 00-16.8-27.4 24.1 24.1 0 00-8.3-4zm-4.9 1.4c5.8-.3 11.1 2.7 15.4 6.5a41.2 41.2 0 0113.5 26.9c.5 5.4 0 11.2-2.7 16a18.2 18.2 0 01-4.2 4.8c-1.6 1.3-3.4 2-5.3 2.6 0-.2.2-.3.3-.4.4-.7.8-1.3 1-2h.2c1.2-1.7.8-3.7.2-5.5-.6-2-1.4-3.8-2.2-5.6a75 75 0 00-12.9-17.6 371.3 371.3 0 01-11.5-12 202.7 202.7 0 01-2-2.1c-.5-.7-1-1.4-1.9-1.9-.6-.4-1.2.4-.9 1 .5.8 1.2 1.5 1.9 2.2a201.2 201.2 0 004.3 4.6l-2-.3a29.2 29.2 0 01-5.3-1.4c-.8-.3-1.6-.9-2.5-1-.8 0-1 1-.6 1.5.6.7 1.7 1 2.5 1.2h.1a19.9 19.9 0 007 .8c-2.7 1.6-5.2 3.6-7.7 5.5l-.5.3c-2.4 2-4.8 4-6.6 6.6a21.7 21.7 0 00-3.2 8l-.5 4.3a9.9 9.9 0 00-.3 4.2v.6c0 .8-.3 2.8.5 3.4v.2a10.4 10.4 0 01-.3-.1l-.1-.1-.1-.1a8.5 8.5 0 01-2-2.5 28.3 28.3 0 01-2.2-16 53.9 53.9 0 011.3-4 53.7 53.7 0 0113.8-21.2c4.2-4 9.7-7 15.5-7.4zm8.2 16c-.2 0-.4.2-.3.4.5 1 1.4 1.7 2 2.6a413 413 0 016.5 8l.4.4a67.3 67.3 0 015 7.8c.3 1 .5 2 1 2.9h.2c.1-1-.3-2-.6-3s-.8-2-1.3-2.9a104 104 0 00-8-11 70.5 70.5 0 00-2.1-2.5l-.3-.3c-.7-.8-1.5-1.8-2.5-2.4zm3.6-2.8c-.4-.3-.7.2-.5.5 1.3 1.7 2.8 3.1 4.3 4.7a53 53 0 0110.4 15.1c-1-4-3.1-7.7-5.5-11l-.1-.2a42.8 42.8 0 00-8.6-9.1z" fill="#2B283A"/><path fill-rule="evenodd" clip-rule="evenodd" d="M116.1 78c-.7-1.2-2.4 2-2.6 2.5a7 7 0 00-.3 1.4c-.6.2-1.2.2-1.8 0-1-.1-1.5-.6-2.3-1-.6-.3-1.3 0-1.5.5-.4.6-.2 1.2.3 1.6.8.8 2.5 1 3.6.8l1.7-.7v.2c0 1 .3 2 1 2.7 1.2 1 2.6-1 1.5-1.9-.7-.6-.9-2-.9-2.9l.3-1.6c.1-.2.7-1.6.9-1.4 0 .1.2 0 .1-.1zm-6.1-7c-1 .6-2.6 2.1-1.5 3.7 1.3 1.4 3.2-.2 4.2-1 .9-.5 1.9 1 1 1.6-6.8 5-9.5-4.2-4.2-5 .6-.2.8.5.5.7zm11.2-6c-1-.1-2 .2-2.9.8-.9.6-1.8 1.6-1.3 2.7.2.4.7.5 1.1.3.6-.3.7-1.1 1.2-1.5.5-.4 1-.6 1.6-.5 1.3 0 2.2 1.4 2.6 2.5 0 .1.2.2.3 0 1-1.8-.7-3.9-2.6-4.2zm-16.4-.6c-2-.2-4.3 1.9-3.8 4 .3 1 1.8 1 2 0 .2-.6.2-1 .5-1.5.4-.4.8-.6 1.3-.5.5 0 1 .3 1.4.6.3.4.5.9.9 1.2h.3c.6-.6.2-1.7-.2-2.3a3.3 3.3 0 00-2.4-1.5zm20.2-3c-1.3-1.1-3.6-2.2-5.3-1.6-1 .3-1.4 1.9-.3 2.3 1.3.6 2.7.4 4 1 .6.2 1 .6 1.5 1 .3.4.6.9 1 1h.3c1-1-.4-3-1.2-3.7zm-18-1.7a5.6 5.6 0 00-4.7.9c-.8.6-1.6 1.3-1.6 2.3 0 .8.9 1.3 1.6.9.6-.4.8-1 1.3-1.5a4.6 4.6 0 013.2-1.2l1.4.2h.5c.2 0 .2-.3.1-.4-.3-.6-1.2-1-1.8-1.2z" fill="#2B283A"/><path fill-rule="evenodd" clip-rule="evenodd" d="M107 86.4c1.3-1.1 2.7-3.5 4.6-1.6.4.5.6 1.7 1.3 1.9 1 .3 1.9-.7 2.2-1.5 1.3-4.2-4-5.3-7.1-4.6-1.5.6-2.6 3-2.7 4.3 0 1 .7 2.2 1.7 1.5zM97.2 80a.8.8 0 010-.1c.6-.2 1 0 1.4.4v.3c.1.4.3 1 .6 1.4a.5.5 0 00.2 0c4.8.5 2.5-4.6 7.4-5.8 3.8-.7 10.7 0 12.5 4 1.4 6.3 8.6 2 11-1.4 2.5-3 4.1-6.6 5.7-10.2.3-.7 1.4-.2 1.3.6 1.4 2.9 1.4 6.4 1.7 9.6.6 6.3 1.2 15.2-4.7 19.1-7.7 8.7-27 11.8-35.9 3.8A35 35 0 0197.2 80z" fill="#2B283A"/></svg>